<svg enable-background="new 0 0 37.9 35" viewBox="0 0 37.9 35" xmlns="http://www.w3.org/2000/svg"><path d="m26.4 1.4c-.5-.4-1.1-.4-1.1-.4h-.1-4-11.1v4.3c0 .8-.2 1.4-.7 1.8s-.9.5-1.3.5c-.2 0-.2 0-.3 0h-4.2v7h14.2c.6.1 1.8.5 1.8 1.9v5.5 1.6c-.1.6-.5 1.8-1.8 1.8h-14.2v3.9c0 1.1.9 1.1 1.1 1.1h20.9c.4 0 .7-.1.8-.3.3-.3.3-.9.3-.9v-26.7c.1-.5 0-.9-.3-1.1z" fill="#fff"/><path d="m2.6 14.5v-2c-.5 0-1 .1-1.3.4-.2.2-.2.4-.2.6v.3c0 .4.6.7 1.5.7z" fill="#e63f3f"/><path d="m8 6.6s.5.1.8-.2c.2-.2.4-.6.4-1.1v-3.6l-5 4.9z" fill="#dde0e5"/><path d="m27.3 29.3s0-24.5 0-26.7-2-2-2-2h-4c1 4.4 2.7 15.2-2.1 21.5v1.6s-.2 1.3-1.4 1.3c-.2 0-.9 0-1.8 0-2.3 1.3-6.1 2.7-12.4 3.3-.2 0-.3 0-.5.1v1.1c0 1.6 1.6 1.6 1.6 1.6s19.2 0 20.9 0 1.7-1.8 1.7-1.8z" fill="#dde0e5"/><path d="m27.8 2.6c0-.8-.2-1.5-.8-2-.6-.6-1.5-.6-1.8-.6h-3.9-11.9l-6.8 6.9v4.6c-.5 0-1.4.2-2 .6-.4.4-.6.9-.6 1.4v.5 7.7 1.8c0 .1 0 .7.5 1.2s1.1.8 2 .8v.1 3.9c0 1.6 1.3 2.1 2.1 2.1h20.9c.7 0 1.2-.2 1.6-.6.6-.6.6-1.4.6-1.6.1.1.1-26.8.1-26.8zm-18.7-.9v3.6c0 .5-.2.8-.4 1.1-.3.2-.7.1-.7.1h-.1-3.7zm-8.1 11.9c0-.3.1-.5.2-.6.3-.3.8-.4 1.3-.4v2c-.9-.1-1.4-.3-1.5-.7zm2.1 10.9c-1.6 0-2-.6-2-1v-1.8-6.5c.7.3 1.4.4 2 .4h.5 14.2c.2 0 .9.2.9.8v5.6 1.6.1.1c-.1.2-.2.5-.5.6-.1 0-.2 0-.2 0h-14.4-.5zm23.3 5.7c-.2.2-.5.3-.8.3h-20.9c-.2 0-1.1-.1-1.1-1.1v-3.9h14.2c1.4 0 1.8-1.1 1.8-1.8v-1.7-5.6c0-1.4-1.2-1.8-1.8-1.9h-14.2v-7h4.2.3c.3 0 .8-.1 1.3-.5.5-.3.7-.9.7-1.7v-4.3h11.2 4 .1s.7-.1 1.1.4c.3.2.4.7.4 1.2v26.8c-.1-.1-.1.4-.5.8z"/><path d="m17.5 15.5h-13.9-.6c-.6 0-1.4-.1-2-.4v6.4 1h5.5c2.4.1 8.7-.8 11-7z" fill="#ed7b7e"/><path d="m3.1 24.5h.5 14.2.2c.4-.1.5-.4.5-.6v-.1-.1-1.6-5.6c0-.7-.8-.8-.9-.8h-.2c-2.3 6.2-8.6 7-10.9 7-1.4 0-3.9 0-5.5 0v.8c.1.3.4 1 2.1 1z" fill="#e63f3f"/><g fill="#fff"><path d="m4.8 17.8h1.6c.9 0 1.5.5 1.5 1.3 0 .9-.7 1.4-1.6 1.4h-.8v1.3h-.7zm1.5 2c.5 0 .8-.3.8-.7 0-.5-.3-.7-.8-.7h-.8v1.4z"/><path d="m8.6 17.8h1.4c1.2 0 2.1.8 2.1 2 0 1.1-.8 2-2.1 2h-1.4zm.6.6v2.7h.8c.8 0 1.4-.5 1.4-1.4 0-.8-.5-1.4-1.4-1.4z"/><path d="m13 17.8h3v.6h-2.3v1.1h2v.6h-2v1.6h-.7z"/></g><path d="m36.2 23.4h-1.7v-7.5c0-.7-.3-1.1-.5-1.4-.6-.5-1.3-.5-1.4-.5h-6.1c-.2 0-.8 0-1.4.5-.2.2-.5.6-.5 1.4v7.5h-1.7c-.5 0-1.2.2-1.6 1s.1 1.6.4 2l6.5 8c.1.2.5.7 1.4.7.7 0 1.1-.5 1.4-.7l6.5-8c.3-.4.8-1.1.4-2-.5-.8-1.3-1.1-1.7-1zm.4 2.3-6.5 8s-.2.3-.5.3-.5-.3-.5-.3l-6.5-8s-.4-.5-.2-.9.5-.4.6-.4h2.8v-8.5c0-.3.1-.5.2-.6.2-.2.6-.2.6-.2h6.1s.4 0 .6.2.2.3.2.6v8.5h2.8s.4 0 .6.4c.1.4-.2.9-.3.9z"/><path d="m36.8 24.8c-.2-.5-.6-.4-.6-.4h-2.8v-8.5c0-.3-.1-.5-.2-.6-.2-.2-.6-.2-.6-.2h-5.3v14.2s0 1-.7 1.4l2.4 3s.2.3.5.3c.4 0 .5-.2.5-.3l6.5-8c.2 0 .5-.5.3-.9z" fill="#ed7b7e"/><path d="m27.3 29.3s0-7.3 0-14.2h-.8s-.4 0-.6.2-.2.3-.2.6v8.5h-2.8c-.1 0-.5 0-.6.4-.2.5.2.9.2.9l4.1 5.1c.7-.5.7-1.5.7-1.5z" fill="#e63f3f"/></svg>