<svg enable-background="new 0 0 514.43 339.42" viewBox="0 0 514.43 339.42" xmlns="http://www.w3.org/2000/svg"><path d="m168.43 134.67h67.61v69.11h-67.61z" fill="#f6c44f" transform="matrix(-.00319531 1 -1 -.00319531 372.1002 -32.4732)"/><path d="m236.46 270.75.22-67.61-69.32 67.38z" fill="#e94c64"/><path d="m305.35 338.58.22-67.6-69.11-.23z" fill="#f0862b"/><path d="m375.09 270.34h67.61v69.11h-67.61z" fill="#f6c44f" transform="matrix(-.00319531 1 -1 -.00319531 715.0979 -103.0278)"/><path d="m305.57 270.98.22-67.61-69.11-.23c-.12 37.34 29.61 67.71 66.4 67.83z" fill="#0097d3"/><path d="m170.52 270.32-3.17 3.2-.01 2.61 5.76-5.8z" fill="#01b0a5"/><path d="m182.05 270.36-14.74 14.86-.01 2.61 17.33-17.47z" fill="#01b0a5"/><path d="m193.58 270.39-26.31 26.53v2.61l28.89-29.13z" fill="#01b0a5"/><path d="m205.11 270.43-37.87 38.19-.01 2.62 40.45-40.8z" fill="#01b0a5"/><path d="m216.64 270.47-49.44 49.85-.01 2.62 52.02-52.46z" fill="#01b0a5"/><path d="m228.17 270.51-61.01 61.51-.01 2.62 63.59-64.12z" fill="#01b0a5"/><path d="m236.45 273.81-63.58 64.12 2.57.01 61.01-61.51z" fill="#01b0a5"/><path d="m236.42 285.52-52.03 52.45 2.58.01 49.44-49.85z" fill="#01b0a5"/><path d="m236.38 297.22-40.46 40.79 2.58.01 37.87-38.19z" fill="#01b0a5"/><path d="m236.34 308.92-28.89 29.13 2.58.01 26.3-26.53z" fill="#01b0a5"/><path d="m236.3 320.62-17.32 17.47 2.57.01 14.75-14.87z" fill="#01b0a5"/><path d="m236.27 332.32-5.76 5.8 2.57.01 3.18-3.2z" fill="#01b0a5"/><path d="m445.46 68.9.22-67.61-41.49-.14c-15.25-.05-27.66 12.27-27.71 27.53l-.13 39.99z" fill="#f0862b"/><path d="m306.06 135.03h67.61v69.11h-67.61z" fill="#5ab038" transform="matrix(-.00319531 1 -1 -.00319531 510.5399 -169.7403)"/><path d="m375.39 67.65h67.61v69.11h-67.61z" fill="#f6c44f" transform="matrix(-.00319531 1 -1 -.00319531 512.704 -306.6577)"/><path d="m444.49 67.88h67.61v69.11h-67.61z" fill="#0097d3" transform="matrix(-.00319531 1 -1 -.00319531 582.2595 -375.5344)"/><path d="m512.53 203.96.22-67.61-2.49-.01c-36.79-.12-66.71 30.05-66.83 67.39z" fill="#f0862b"/><path d="m305.85 202.64h67.61v69.11h-67.61z" fill="#8e418d" transform="matrix(-.00319531 1 -1 -.00319531 577.9313 -101.6998)"/><path d="m443.2 271.34.22-67.61-69.11-.23c-.12 37.34 29.61 67.71 66.4 67.83z" fill="#e94c64"/><path d="m166.36 339.42.22-67.61-69.11-.23c-.12 37.34 29.61 67.71 66.4 67.83z" fill="#0097d3"/><path d="m444.06 203.1h67.61v69.11h-67.61z" fill="#8e418d" transform="matrix(-.00319531 1 -1 -.00319531 717.0424 -239.4533)"/><g fill="#e94c64"><path d="m308.81 68.07-3.18 3.2-.01 2.61 5.76-5.8z"/><path d="m320.33 68.11-14.74 14.86-.01 2.61 17.33-17.46z"/><path d="m331.86 68.14-26.3 26.53-.01 2.62 28.89-29.14z"/><path d="m343.39 68.18-37.87 38.19-.01 2.62 40.46-40.8z"/><path d="m354.92 68.22-49.44 49.85-.01 2.62 52.02-52.46z"/><path d="m366.45 68.26-61.01 61.52-.01 2.61 63.59-64.12z"/><path d="m374.74 71.56-63.59 64.13h2.57l61.01-61.51z"/><path d="m374.7 83.27-52.02 52.45 2.57.01 49.44-49.85z"/><path d="m374.66 94.97-40.45 40.79 2.57.01 37.87-38.19z"/><path d="m374.62 106.67-28.89 29.13 2.58.01 26.31-26.53z"/><path d="m374.59 118.37-17.33 17.47 2.58.01 14.74-14.87z"/><path d="m374.55 130.07-5.76 5.81h2.58l3.17-3.2z"/></g><path d="m448.59.29-3.17 3.21-.01 2.61 5.76-5.81z" fill="#8e418d"/><path d="m460.12.33-14.74 14.87-.01 2.61 17.32-17.47z" fill="#8e418d"/><path d="m471.65.37-26.31 26.53-.01 2.61 28.89-29.13z" fill="#8e418d"/><path d="m483.18.41-37.88 38.19v2.61l40.45-40.79z" fill="#8e418d"/><path d="m494.71.45-49.44 49.85-.01 2.61 52.02-52.46z" fill="#8e418d"/><path d="m506.24.48-61.01 61.52-.01 2.61 63.59-64.12z" fill="#8e418d"/><path d="m514.52 3.79-63.59 64.12 2.58.01 61-61.52z" fill="#8e418d"/><path d="m514.48 15.49-52.02 52.46 2.58.01 49.44-49.86z" fill="#8e418d"/><path d="m514.45 27.19-40.46 40.8 2.57.01 37.88-38.19z" fill="#8e418d"/><path d="m514.41 38.89-28.89 29.13 2.57.01 26.31-26.53z" fill="#8e418d"/><path d="m514.37 50.59-17.32 17.47 2.57.01 14.74-14.86z" fill="#8e418d"/><path d="m514.33 62.29-5.75 5.81 2.57.01 3.18-3.2z" fill="#8e418d"/></svg>