<svg enable-background="new 0 0 16 16" viewBox="0 0 16 16" xmlns="http://www.w3.org/2000/svg"><g fill="#4e4e4d"><path d="m9.3 15.9c-.1 0-.1 0-.2 0zm0 0"/><path d="m8.9 15.9c-.1 0-.2 0-.2 0 .1.1.1.1.2 0zm0 0"/><path d="m9.1 15.9h-.1zm0 0"/><path d="m9.7 15.8c-.1 0-.1 0 0 0zm0 0"/><path d="m8.7 16h-.1zm0 0"/><path d="m16 8c0-4.4-3.6-8-8-8s-8 3.6-8 8 3.6 8 8 8h.1v-6.2h-1.7v-2h1.7v-1.5c0-1.7 1-2.6 2.6-2.6.7 0 1.4.1 1.5.1v1.8h-1.1c-.8 0-1 .4-1 1v1.3h2l-.3 2h-1.7v5.9c3.5-1.1 5.9-4.1 5.9-7.8zm0 0"/><path d="m8.5 16c-.1 0-.2 0-.2 0zm0 0"/><path d="m8.3 16h-.1zm0 0"/></g></svg>