<svg enable-background="new 0 0 16 16" viewBox="0 0 16 16" xmlns="http://www.w3.org/2000/svg"><g fill="#4e4e4d"><path d="m2 7.5v1.1c0 .6-.4 1-1 1s-1-.4-1-1v-1.1c0-.6.4-1 1-1s1 .4 1 1z"/><path d="m14 7.5c0-.6.4-1 1-1s1 .4 1 1v1.1c0 .5-.5 1-1 1s-1-.4-1-1z"/><path d="m5.5 10.7v1.1c0 .6-.4 1-1 1s-1-.4-1-1v-1.1c0-.6.4-1 1-1s1 .5 1 1zm0-6.5v3.6c0 .5-.5 1-1 1s-1-.4-1-1v-3.6c0-.6.4-1 1-1s1 .4 1 1z" opacity=".9"/><path d="m10.5 5.3c0 .6.4 1 1 1s1-.4 1-1v-1.1c0-.6-.4-1-1-1s-1 .4-1 1z" opacity=".6"/><path d="m7 2.1c0 .6.4 1 1 1s1-.4 1-1v-1.1c0-.6-.4-1-1-1s-1 .4-1 1zm0 11.8c0-.6.4-1 1-1s1 .4 1 1v1.1c0 .6-.4 1-1 1s-1-.4-1-1z" opacity=".3"/><path d="m10.5 8.3c0-.6.4-1 1-1s1 .4 1 1v3.5c0 .6-.4 1-1 1s-1-.4-1-1z" opacity=".6"/><path d="m9 5.1v5.8c0 .6-.4 1-1 1s-1-.4-1-1v-5.8c0-.6.4-1 1-1s1 .4 1 1z" opacity=".3"/></g></svg>