<svg enable-background="new 0 0 98 45.2" viewBox="0 0 98 45.2" xmlns="http://www.w3.org/2000/svg"><g fill="#cdcdd3"><path d="m37.6 15.3-.5.5c-.1.1-.1.2 0 .3l.5.5c.1.1.2.1.3 0l.5-.5c.1-.1.1-.2 0-.3l-.5-.5c-.1-.1-.2-.1-.3 0"/><path d="m37.6 18.1-.5.5c-.1.1-.1.2 0 .3l.5.5c.1.1.2.1.3 0l.5-.5c.1-.1.1-.2 0-.3l-.5-.5c-.1-.1-.2-.1-.3 0"/><path d="m37.6 20.9-.5.5c-.1.1-.1.2 0 .3l.5.5c.1.1.2.1.3 0l.5-.5c.1-.1.1-.2 0-.3l-.5-.5c-.1-.1-.2-.1-.3 0"/><path d="m37.6 23.6-.5.5c-.1.1-.1.2 0 .3l.5.5c.1.1.2.1.3 0l.5-.5c.1-.1.1-.2 0-.3l-.5-.5c-.1-.1-.2-.1-.3 0"/><path d="m37.6 26.4-.5.5c-.1.1-.1.2 0 .3l.5.5c.1.1.2.1.3 0l.5-.5c.1-.1.1-.2 0-.3l-.5-.5c-.1-.1-.2-.1-.3 0"/><path d="m37.6 29.2-.5.5c-.1.1-.1.2 0 .3l.5.5c.1.1.2.1.3 0l.5-.5c.1-.1.1-.2 0-.3l-.5-.5c-.1-.1-.2-.1-.3 0"/><path d="m8.5 35.1.1.3h-.8c-.4 0-.5.2-.5.7 0 .6.1.7.5.7h.4v-.7h.3v.8.1c-.1.1-.4.2-.8.2-.7 0-.9-.3-.9-1.1 0-.9.2-1.1.9-1.1.3 0 .6.1.8.1"/><path d="m9.3 36.5c0 .4 0 .5.3.5s.3-.1.3-.5 0-.5-.3-.5-.3.1-.3.5m1 0c0 .7-.1.8-.7.8s-.7-.2-.7-.8c0-.7.1-.8.7-.8s.7.1.7.8"/><path d="m11 36v.9h.3c.3 0 .3-.1.3-.5s0-.5-.3-.5h-.3zm0-.9v.6h.4c.5 0 .7.2.7.8 0 .7-.1.8-.8.8-.2 0-.4 0-.6-.1 0 0-.1 0-.1-.1v-2.1h.4z"/><path d="m12.7 35.7v1.6h-.3v-1.5h.3zm.1-.5c0 .1-.1.2-.2.2-.2 0-.3-.1-.3-.2s.1-.2.3-.2c.1 0 .2.1.2.2"/><path d="m13.4 36.4h.6c0-.3-.1-.3-.3-.3-.2-.1-.3 0-.3.3m1 .1c0 .1 0 .2-.1.2h-.9c0 .3.1.3.3.3h.5v.2c-.2 0-.4 0-.6 0-.6 0-.7-.2-.7-.8 0-.7.1-.8.7-.8.7.1.8.2.8.9"/><path d="m15.6 35.7v.3h-.3c-.2 0-.2 0-.2.1v1.1h-.3v-1.2c0-.4.3-.4.5-.4 0 .1.2.1.3.1"/><path d="m17.3 36.4v.9h-.3v-.8c0-.4 0-.4-.3-.4h-.3v1.2h-.3v-1.5h.7c.3-.1.5 0 .5.6"/><path d="m18 36.5c0 .4 0 .5.3.5s.3-.1.3-.5 0-.5-.3-.5-.3.1-.3.5m1 0c0 .7-.1.8-.7.8s-.7-.2-.7-.8c0-.7.1-.8.7-.8s.7.1.7.8"/><path d="m20.5 35.9c-.5 0-.5.1-.5.6s.1.7.4.7h.5v-1.3zm.5-.8s.1.1 0 0v2.1c-.3 0-.4 0-.6 0-.5 0-.6-.2-.6-.8s.1-.8.6-.8h.4v-.6c.1.2.1.1.2.1z"/><path d="m21.6 36.5h.9c0-.5-.1-.6-.4-.6-.4 0-.5.1-.5.6m1 0c0 .1 0 .1-.1.1h-1c0 .5.1.6.5.6h.4v.1c-.1 0-.3 0-.4 0-.5 0-.6-.2-.6-.8s.1-.8.6-.8.6.2.6.8"/><path d="m23.1 35.1s0 .1 0 0v2.1h-.1v-2.1c0 .1 0 0 .1 0z"/><path d="m25.7 35.1v.4h-1v.5h1v.3h-1v.5h1v.3h-1.5v-2.2h1.5z"/><path d="m27.1 35.7s.1 0 0 0v.3h-.5c-.1 0-.2 0-.2.1 0 .1 0 .1.1.1l.4.1c.2.1.3.2.3.4 0 .3-.2.4-.6.4-.3 0-.5 0-.6 0v-.1h.6c.2 0 .2 0 .2-.1 0-.1 0-.1-.2-.1l-.4-.1c-.2-.1-.3-.3-.3-.4v-.1c0-.3.2-.4.7-.4.2-.1.3-.1.5-.1"/><path d="m27.9 35.2c.1 0 .1 0 0 0v.5h.3v.3h-.2v.8c0 .1 0 .1.2.1h.1v.2.1c-.1 0-.2 0-.2 0-.2 0-.5 0-.5-.4v-.8h-.2v-.2h.2v-.3z"/><path d="m29.1 36.6c-.2 0-.2 0-.2.2 0 .1.1.2.2.2h.3v-.3h-.3zm.7-.4v1s0 .1-.1.1c-.2 0-.5.1-.7.1-.4 0-.7 0-.7-.5 0-.4.2-.5.6-.5h.4v-.1c0-.1-.1-.2-.3-.2h-.5v-.2h.5c.7-.2.8-.1.8.3"/><path d="m30.9 36c-.3 0-.3.1-.3.5 0 .3 0 .5.3.5h.3v-1zm.6-.9v2.1s0 .1-.1.1c-.2 0-.4.1-.6.1-.6 0-.8-.2-.8-.8s.1-.8.7-.8h.4v-.6h.4z"/><path d="m32.2 36.5c0 .4 0 .5.3.5s.3-.1.3-.5 0-.5-.3-.5c-.2 0-.3.1-.3.5m1.1 0c0 .7-.1.8-.7.8s-.7-.2-.7-.8c0-.7.1-.8.7-.8s.7.1.7.8"/><path d="m10.4 12.6c-.5 0-.9.9-.9 1.9s.4 1.9.9 1.9.9-.9.9-1.9c0-1.1-.4-1.9-.9-1.9"/><path d="m29.7 12.6c-.5 0-.9.9-.9 1.9s.4 1.9.9 1.9.9-.9.9-1.9c0-1.1-.4-1.9-.9-1.9"/><path d="m15.8 16.1c.2.2.1.3.1.4l-.1.1-.4-.4v-.1c.1-.1.2-.1.4 0m-.4-.1-.2.2.6.5.2-.2s.1-.1.1-.3-.1-.3-.2-.3c-.1-.1-.2-.1-.3-.1-.1.1-.2.2-.2.2"/><path d="m16.8 15.8-.1-.1-.3.3-.2-.2.3-.3-.1-.1-.3.3-.1-.1.3-.4-.1-.1-.4.5.5.6z"/><path d="m16.7 15 .1-.1c.1-.1.1-.1.2-.1h.1v.1s-.1.1-.1.1l-.1.1zm.4.6-.2-.3c.1-.1.1-.1.3 0l.2.1.2-.1-.2-.1c-.1-.1-.2-.1-.3-.1s0 0 .1-.1c0-.1 0-.2 0-.2 0-.1-.1-.1-.2-.1 0 0-.1 0-.2.1l-.4.2.5.7z"/><path d="m18.2 15-.1-.2-.4.2-.1-.2.4-.2-.1-.1-.4.2v-.2l.4-.2-.1-.1-.6.3.4.7z"/><path d="m18.6 14.8c.3-.1.3-.3.3-.4h-.2c0 .1 0 .2-.1.2s-.1 0-.2 0c0 0-.1-.1-.1-.2s-.1-.3.1-.3c.1 0 .2 0 .2.1l.2-.1c0-.1-.1-.1-.1-.1-.1-.1-.2 0-.3 0-.3.1-.3.3-.2.5 0 .3.2.4.4.3"/><path d="m19.3 14.7-.1-.4h.3l.1.3h.2l-.2-.8h-.1v.3l-.3.1-.1-.4h-.1l.1.9z"/><path d="m20.3 13.9c.2 0 .2.2.2.3 0 .2-.2.3-.2.3-.1 0-.2-.1-.2-.1s0-.1 0-.2c0-.2 0-.3.2-.3m0 .7c.3 0 .4-.2.4-.4s-.1-.4-.4-.5c-.3 0-.4.2-.4.4 0 .3.1.5.4.5"/><path d="m23.2 14.9-.1.3-.2-.1zm-.4.3.3.2v.2l.2.1.2-.9-.2-.1-.7.5.2.1z"/><path d="m23.4 15.5c-.1.1-.1.3 0 .4s.2.1.2.1c.1 0 .1-.1.2-.1l.3-.4-.1-.1-.4.4c-.1.1-.1.1-.2.1-.1-.1 0-.1 0-.2z"/><path d="m24.2 16.6.1-.1-.3-.3.1-.2.3.3.1-.1-.3-.3.2-.1.3.3.1-.1-.4-.4-.7.5z"/><path d="m24.4 16.8.4-.3-.2.6.1.2.6-.5v-.2l-.5.4.3-.7-.1-.1-.7.5z"/><path d="m25.5 17.4c.1.2-.1.3-.1.3-.2.1-.3 0-.4-.1 0-.1 0-.2 0-.2s.1-.1.1-.1c.2-.1.4-.1.4.1m-.6.3c.1.3.4.3.6.2s.3-.3.2-.6c-.1-.2-.3-.3-.6-.2-.2.1-.4.3-.2.6"/><path d="m25.6 20 .1.7h.1v-.5h.2v.4h.2v-.4h.1l.1.4h.1v-.6z"/><path d="m26.3 20.8c-.2 0-.2.2-.3.3 0 .2-.1.2-.1.2-.1 0-.1-.1-.1-.2 0-.2.1-.2.2-.2v-.2c-.3 0-.3.2-.3.3v.2c0 .1.1.1.2.1.2 0 .3-.2.3-.3s.1-.2.1-.2c.1 0 .1.1.1.1 0 .1-.1.1-.1.2v.2c.2 0 .3-.2.3-.3-.1-.1-.2-.2-.3-.2"/><path d="m24.9 24h.2l.1-.3.7.2.1-.1-.8-.4z"/><path d="m25.3 24.7-.3-.1.1-.2zm-.5-.5.1.2-.2.3h-.2l-.1.2.9.1.1-.2-.5-.8z"/><path d="m23.5 26.4.1.2h-.1c-.1.1-.1.1-.2.1h-.1c.1-.1.2-.2.3-.3zm-.3-.4.2.3-.1.1c-.1 0-.1.1-.2.2 0 .1-.1.2 0 .3s.2.1.2.1.1 0 .2-.1l.2-.2z"/><path d="m22.6 26.8.2-.1.1.3zm.2-.4v.2l-.3.2-.2-.1-.2.1-.6.2.1.1.5-.2-.2.7v.1l.6-.2-.1-.1-.4.1.2-.7v-.1l.7.6.2-.1-.1-.9z"/><path d="m18.9 27.2h.5l-.1.3-.4-.1v.1l.4.1v.2l-.5-.1v.2l.6.1.2-.9-.7-.1z"/><path d="m18.3 26.8-.1.1.4.2-.2.6.2.1.2-.8z"/><path d="m16.5 26.6-.1-.1c-.1-.1-.1-.1-.1-.1v-.1s.1-.1.1 0c0 0 .1.1.1.1l.1.1zm.4-.6-.2.3c-.1-.1-.1-.1-.1-.3v-.2l-.2-.1v.2.3h-.1c-.1 0-.2 0-.2.1-.1.1-.1.2 0 .3 0 0 0 .1.1.1l.3.2.5-.7z"/><path d="m16 25.1-.1.1.3.4-.2.1-.3-.3-.1.1.3.3-.1.2-.3-.4-.1.1.4.5.6-.6z"/><path d="m15.5 25.1c-.1-.1-.1-.2 0-.2 0 0 .1 0 .2.1s0 .2 0 .2l.1.1c.2-.2.1-.4 0-.5 0 0-.1-.1-.1-.1-.1 0-.2 0-.3 0-.2.1-.1.3 0 .4s.1.2 0 .2-.1 0-.2-.1 0-.2 0-.2l-.1-.1c-.2.1-.1.3 0 .4.1.2.3.2.4.1s0-.3 0-.3"/><path d="m14.8 24.6c-.1-.2-.1-.2-.1-.2s0-.1.1-.1c.1-.1.2 0 .2.1v.1zm.6-.3-.3.2-.1-.1c0-.1-.1-.1-.1-.2 0 0-.1-.1-.3 0-.1.1-.1.2-.1.2s0 .1.1.2l.1.2.7-.4z"/><path d="m14.9 23.1-.2.1.2.4-.2.1-.2-.4-.1.1.2.4-.2.1-.2-.5-.1.1.2.6.8-.4z"/><path d="m14.1 23 .7-.1-.1-.2-.6.2-.1-.3-.2.1.2.6h.2z"/><path d="m14.1 21.9c.2 0 .3.1.3.2s0 .2-.1.2c0 0-.1.1-.2.1s-.3 0-.3-.2c.1-.3.2-.3.3-.3m.1.6c.2 0 .4-.2.4-.5s-.3-.4-.5-.3c-.2 0-.4.2-.4.5.1.2.3.4.5.3"/><path d="m14.3 19.3-.3-.2h.3zm.3.2-.2-.1.1-.3h.2v-.2l-.8.1v.2l.8.5z"/><path d="m15 18.2h-.1l-.2.4-.6-.3-.1.2.8.3z"/><path d="m14.4 17.3c0 .1.1.2.1.2.1.1.4.1.4.1v.3h.1v-.3s.3-.1.3-.2c.1 0 .1-.1.1-.2s-.1-.2-.2-.2-.1.1-.1.2c0 .1-.1.2-.1.2v-.2-.1c0-.2-.1-.3-.2-.3s-.2.1-.2.3v.1.1c-.1 0-.2-.1-.2-.2 0-.1-.1-.2-.2-.2.3.2.2.3.2.4"/><path d="m14.4 17.1c.1-.1 0-.1 0-.1-.1 0-.1 0 0 .1-.1 0-.1 0 0 0"/><path d="m14.5 17s.1 0 0 0c.1-.1 0-.1 0-.1s-.1 0 0 .1c-.1 0 0 0 0 0"/><path d="m15 16.8c.1-.1 0-.1 0-.1s-.1 0 0 .1c-.1 0 0 0 0 0"/><path d="m15.2 16.8c.1-.1 0-.1 0-.1-.1 0-.1 0 0 .1-.1 0-.1 0 0 0"/><path d="m15.5 17c0-.1 0-.1 0 0-.1-.1-.1 0-.1 0z"/><path d="m15.6 17c-.1.1 0 .1 0 .1.1 0 .1 0 0-.1.1 0 .1 0 0 0"/><path d="m13.9 21v.3h.1v-.3s.3-.1.3-.2c.1 0 .1-.1.1-.2s-.1-.2-.2-.2-.1.1-.1.2c0 .1-.1.2-.1.2v-.2-.1c0-.2-.1-.3-.2-.3s-.2.1-.2.3v.1.1c-.1 0-.2-.1-.2-.2 0-.1-.1-.2-.2-.2s-.2.1-.2.2.1.2.1.2c.6.2.8.3.8.3z"/><path d="m13.4 20.4c-.1 0-.1 0 0 0-.1.1 0 .1 0 .1z"/><path d="m13.5 20.4c.1-.1 0-.1 0-.1s-.1 0 0 .1c-.1 0 0 0 0 0"/><path d="m13.9 20.1c0 .1 0 .1 0 0 .1.1.1 0 .1 0s0 0-.1 0z"/><path d="m14.1 20.1c0 .1 0 .1 0 0 .1.1.1 0 .1 0s0 0-.1 0z"/><path d="m14.4 20.3c0 .1 0 .1 0 0 .1.1.1 0 .1 0s0 0-.1 0z"/><path d="m14.6 20.4c0 .1 0 .1 0 0 .1.1.1 0 .1 0s0 0-.1 0z"/><path d="m26.4 22.6c-.1 0-.1.1-.1.2 0 .1-.1.2-.1.2v-.2-.1c0-.2-.1-.3-.2-.3s-.2.1-.2.3v.1.1c-.1 0-.2-.1-.2-.2 0-.1-.1-.2-.2-.2s-.2.1-.2.2.1.2.1.2c.1.1.4.1.4.1v.3h.1v-.3s.3-.1.3-.2c.1 0 .1-.1.1-.2.3.1.3 0 .2 0"/><path d="m25.3 22.6s0 .1 0 0c.1.1.1 0 .1 0s0-.1-.1 0c0-.1 0 0 0 0"/><path d="m25.5 22.6c.1-.1 0-.1 0-.1-.1-.1-.1 0 0 .1-.1-.1-.1 0 0 0"/><path d="m25.9 22.3c0 .1 0 .1 0 0 .1.1.1 0 .1 0s0 0-.1 0z"/><path d="m26.1 22.3c0 .1 0 .1 0 0 .1.1.1 0 .1 0z"/><path d="m26.4 22.5s0 .1 0 0c.1.1.1 0 .1 0s0 0-.1 0z"/><path d="m26.5 22.6s.1.1 0 0c.1.1.1 0 .1 0 .1 0 0 0-.1 0z"/><path d="m24 6c-.1 0-.1 0 0 0 0 .3.1.5.1.8 0 .1 0 .3-.1.5v.4.1s0 0 0-.1 0-.3 0-.4c0-.2 0-.4-.1-.5 0-.1-.1-.2-.2-.4-.1-.1-.1-.2-.1-.3 0 0 0 0 0-.1v-.1l-.1-.2h-.1l.1.5c0 .1.1.2.2.2s.1.1.1.1c.1.1.1.1.1.2 0 .2 0 .4.1.7l-.1.6v.5.1s0 0 .1-.1c.1-.2.1-.7.1-1.1 0-.1 0-.2.1-.4 0-.1.1-.2 0-.3 0-.2-.1-.4-.2-.7z"/><path d="m23.8 6.3-.1-.2s0 0 0-.1v-.1s-.1-.1-.1-.1c0 .3.1.4.2.5z"/><path d="m22.3 5.8v.1c0 .1.1.2.2.3 0 0 .1.1.1.1.1.1.2.2.2.2.1.1.1.2.1.3v.1c0 .2.1.4.2.7 0 .1.1.1.1.2v.3.1s0 0 0-.1c0-.2 0-.4 0-.8 0-.3-.1-.5-.2-.7 0 0 0 0-.1 0v.1c.1.2.1.4.2.7v.1s0 0-.1-.1c0 0-.1-.2-.1-.4 0-.1 0-.1 0-.2s-.1-.2-.1-.3c-.2-.2-.3-.4-.5-.7.1.1.1 0 0 0"/><path d="m22.8 6.2c-.1-.1-.1-.2-.1-.3 0 0 0 0-.1 0 0 .1.1.2.2.3z"/><path d="m23.6 7.3c-.1 0-.1 0 0 0-.1-.1-.1-.1-.1-.1l-.1-.5c-.1-.2-.1-.3-.2-.4s-.2-.3-.3-.6c0-.1 0-.1-.1-.1v.1.1c.1.3.2.4.3.6.1.1.1.2.2.3v.2c.1.3.1.5.2.7 0 .1 0 .1.1.2v.4.1s0 0 0-.1c0-.2 0-.5 0-.9 0-.2 0-.4-.1-.5 0-.1 0-.1-.1-.2 0 0 0 0-.1 0 .2.2.3.4.3.7z"/><path d="m23.2 6.2c0-.1-.1-.2-.1-.2v-.1s0 0 0-.1c0 0 0 0-.1 0 0 .2.1.4.2.4 0 .1 0 .1 0 0 .1.1.1.1 0 0 .1 0 .1 0 0 0"/><path d="m22.7 6.9c-.1 0-.1-.1 0 0-.1-.2-.2-.3-.3-.4-.2-.1-.3-.2-.4-.3 0 0-.1-.1-.1-.2s0 0-.1.1c.1.2.2.3.3.3.2.1.4.2.4.4.1.2.1.3.2.4v.1.1s0 0 0-.1c0-.5-.1-.8-.2-.9.2.2.2.3.2.5 0-.1 0-.1 0 0z"/><path d="m22.1 6c0 .1.1.2.2.3-.1-.1-.1-.2-.2-.3"/><path d="m21.6 6.4s0 .1 0 0c.2.1.2.1.2.1.1 0 .1 0 .1.1.1.1.2.2.2.3.1.1.1.2.2.3 0-.1-.1-.3-.2-.5h-.1l.1.1c0-.1-.1-.1-.1-.2 0 0 0 0-.1-.1 0 0-.1 0-.2-.1h-.1c0-.1 0-.2-.1-.2v.1c0 .1 0 .1.1.1"/><path d="m23.1 8.2c-.5-.4-1-.7-1.5-1.1s0 .1.1.1l1.6 1.2h.1v.1c-.1 0-.1 0-.2 0s-.2 0-.3-.1c-.4-.3-.9-.7-1.3-1v.1.1c.4.3.8.7 1.2 1 .1.1.2.1.3.1s.2 0 .3-.1v-.1c-.1-.2-.2-.2-.3-.3"/><path d="m22.8 8.3c.1.1.1.1.2.1l-1.4-1.1v.1z"/><path d="m22.5 8.4-.9-.8v.1c.2.2.5.4.9.7 0 .1 0 .1.1.1h.1z"/><path d="m21.7 6.2c-.1 0-.1 0 0 0 0 .1 0 .1.1.1s-.1 0-.1-.1z"/><path d="m21.9 8c-.1-.1-.2-.2-.4-.3l.1.1c.3.3.5.5.8.7.1.1.1.1.2.1h.1.1s0 0-.1 0-.1 0-.2-.1c-.3-.1-.5-.3-.6-.5"/><path d="m21.4 7.8c.2.2.4.5.6.7.1.1.1.1.2.1-.2-.2-.4-.5-.6-.6-.1-.1-.2-.2-.2-.2z"/><path d="m21.3 7.9v.1c.1.1.3.3.5.6.2 0 .2.1.3.1h.2.1c-.1 0-.2 0-.3-.1-.3-.2-.5-.5-.8-.7z"/><path d="m22 8.7s-.1-.1 0 0c-.2-.1-.3-.2-.5-.4l-.1-.1.3.4c.1 0 .2.1.3.1z"/><path d="m17.6 4.9c.1.1.2.2.4.2h.1c-.1-.1-.1-.1-.1-.2s.1-.1.2-.1h.1.1c.1-.1.1-.1.2-.1h.1v.1s0 0-.1 0-.1 0-.1.1h.1.1c.1 0 .2-.1.3-.2 0 0 0 0 0-.1-.1-.1-.2-.1-.2-.1h-.1c-.1 0-.1 0-.1 0h-.1l-.5-.1h-.1-.1s0 0-.1 0 0 0-.1 0c-.1.1-.1.1-.1.2.1.2.1.2.1.3"/><path d="m18.1 4.3c.1 0 .1-.1.1-.1 0-.1 0-.1.1-.2s0 0 .1-.1c0-.1 0-.1 0-.2 0 .2-.1.2-.2.3-.2.1-.2.1-.2.1v.1c0 .1 0 .1.1.1"/><path d="m18.3 4.1c0 .1 0 .2-.1.2.2 0 .2-.1.1-.2z"/><path d="m18.5 3.8v-.1c.1 0 .1 0 0 .1.1 0 .1-.1.1-.1 0-.1 0-.1-.1-.2v.3s0 .1 0 0z"/><path d="m18.5 4c.3-.1.3-.3.3-.4s0-.2-.1-.2c0 .1 0 .3-.1.3 0 .1-.1.2-.1.3-.1 0-.1 0 0 0"/><path d="m18.8 4c-.1.1-.1.1-.2.1s-.1 0-.1.1c.1 0 .2 0 .3-.2.1 0 .2-.1.1-.2-.1.1-.3.2-.4.2 0 .1.2 0 .3 0z"/><path d="m18.4 4.4s.1 0 0 0c.1 0 .4-.2.5-.2v.1l-.2.1h.1c.2 0 .2-.1.2-.2 0 0 0 0-.1-.1h-.1c-.1.1-.2.2-.4.3.1-.1 0-.1 0 0z"/><path d="m18.9 3.7s.1-.1.1-.1c.1 0 0 .1-.1.1.1.1.1.1.1.1 0-.1.1-.2 0-.2 0 0 0-.1-.1-.1v.1z"/><path d="m19.4 3.9c.1.1.2.1.2.1.1-.1.1-.1.1-.2s0 0-.1 0h-.1c-.2-.1-.3-.1-.4-.1.2 0 .3.1.4.2-.1-.1-.4-.2-.4-.2.1.1.2.2.3.2"/><path d="m19 4.5c-.1 0-.1 0 0 0-.1 0-.1.1 0 0 0 .1 0 .1 0 0 0 .1.1.1 0 0 .1 0 .1-.1 0-.1z"/><path d="m19.1 4.1c0 .1 0 .1 0 0 .1.1.2.1.2.2v.1s0 0-.1 0c0 0-.1-.1-.1-.1 0 .1 0 .1.1.2h.1s.1 0 .1-.1v-.1c-.1 0-.2-.1-.3-.2"/><path d="m19.1 3.9c.1.1.2.1.3.2v.1h-.1c-.1-.1-.2-.2-.3-.2s.4.2.4.2h.1s.1-.1 0-.1c0-.1-.2-.2-.4-.2z"/><path d="m22.4 3.8c.6.5 1 1 1.4 1.8v.1h-.1c-.1-.1-.2-.2-.3-.3-.4-.6-.9-1-1.3-1.4v.1c.4.3.8.8 1.3 1.5.2.2.4.3.7.3h.1.1c-.1-.1-.2-.2-.3-.4-.5-.9-1.1-1.4-1.6-1.7.1 0 .1 0 0 0z"/><path d="m23.6 5.5s.1 0 0 0c.1 0 .1 0 0 0-.3-.7-.7-1.2-1.3-1.6 0 0 0 0-.1 0 .4.3.8.7 1.4 1.6"/><path d="m23 5.5c-.4-.5-.7-.8-1-1.1v.1c.2.2.4.4.6.7.1.2.3.3.3.4h.1.1v-.1c-.1-.5-.5-.9-1-1.3v.1c.3.3.7.6 1 1.1 0 0 0 .1-.1.1.1 0 .1 0 0 0"/><path d="m21.9 4.7c.2.3.4.5.7.8v.1s-.1.1-.1.1h-.1c-.2-.1-.3-.3-.4-.4-.1-.2-.1-.3-.2-.3v.1l.4.5.2.2h.1c.1 0 .1 0 .1-.1 0 0 0-.1 0-.2-.1-.3-.3-.6-.7-.8z"/><path d="m21.8 4.9c.2.2.4.4.6.6-.1-.3-.3-.5-.6-.6 0-.1 0-.1 0 0"/><path d="m21.7 5.2c.1.2.2.3.3.5v.1s0 0-.1 0h-.1c-.1-.1-.2-.2-.4-.3v.1c.2.2.3.3.4.4h.1.1s0-.1 0-.2c.2-.2 0-.4-.3-.6"/><path d="m21.6 5.3.4.3c-.1-.1-.3-.2-.4-.3z"/><path d="m21.5 6.1c.1 0 .2 0 .3-.1v-.1c-.1-.1-.2-.2-.3-.3.1.1.2.2.2.3v.1c-.1 0-.1 0-.2.1 0-.1 0-.1 0 0-.1-.1-.2-.2-.2-.3 0 .1.1.2.2.3"/><path d="m21.5 5.9c0-.1 0-.1 0 0 0-.1-.1-.2-.1-.2 0 .1 0 .1.1.2"/><path d="m21.3 6.1-.2-.2.1.1c0 .1 0 .1.1.1-.1.1-.1.1-.2.1s0 0-.1.1l.1-.1c.2 0 .2-.1.2-.1"/><path d="m21.1 6.2c0-.1 0-.1 0 0l-.1-.2z"/><path d="m21.1 3.6c.3.2.6.3.7.4v.1s0 0-.1 0c0 0 0 0-.1 0-.2-.1-.4-.2-.5-.3v.1l.6.3h.1.1c0-.1 0-.2-.2-.3-.1-.1-.4-.3-.6-.3z"/><path d="m21.2 4c.1.1.1.1.2.2s.3.2.3.2v.1s0 0-.1 0c0 0 0 0-.1 0l-.3-.2v.1c.1.1.2.1.2.2s.1.1.1.1c.1-.1.1-.2.1-.3.1-.2-.1-.3-.4-.4"/><path d="m21.6 4.4c.1.1.1 0 0 0 0-.1-.3-.3-.3-.3.1.2.2.3.3.3"/><path d="m21.5 5.1h.1s.1-.1.1-.1c0-.1 0-.1-.1-.2l-.3-.2v.1c.1.1.2.1.2.2v.1s0 0-.1 0c0 0 0 0-.1 0l-.2-.1v.1z"/><path d="m21.5 4.9c0-.1 0-.1 0 0l-.1-.1z"/><path d="m21.1 5.3s0 .1 0 0l.2.2h.1c.1-.1.1-.1 0-.2s-.1-.1-.2-.2v.1l.1.1v.1s0 .1-.1.1z"/><path d="m21.1 5.2c.1.1.1.1.1.1z"/><path d="m20.8 5.6c-.1 0-.1 0 0 0l.1.2h.1c.1 0 .1-.1.2-.1 0-.1 0-.1 0-.2-.1 0-.2-.1-.2-.1v.1.1s0 0-.1 0c0 0 0 0-.1 0z"/><path d="m20.9 5.6c.1 0 .1 0 0 0l-.1-.1s0 0 .1.1z"/><path d="m21.2 7.6c0 .1 0 .1 0 0 .1.1.1 0 .1 0 .2-.2.1-.9-.1-1.2v.1c.2.4.2.7.2.9v.1s0 0-.1-.1c0-.3-.1-.5-.2-.7v.1c0 .2.1.5.1.8"/><path d="m21.1 6.5s0 .1 0 0c.1.2.2.4.2.6 0-.2-.1-.4-.2-.6z"/><path d="m20.1 3.4c.1.1.2.1.2.1.2.1.3.2.4.6.1.4.1.6-.2.9v.1c.1 0 .2-.1.3-.3.2-.3 0-.9-.1-1.1-.1-.1-.2-.2-.3-.3l-.4-.1s-.1-.1-.1-.1 0-.1.1-.1h.2.1c.6 0 1.2.2 1.8.6v.1h-.1-.1l-.1-.1v.1h.3c.1 0 .3-.1.4-.1 0 0 0 0 0-.1 0 0 0 0-.1 0-.1 0-.3 0-.4-.1-.6-.3-1.2-.5-1.9-.5-.1 0-.1 0-.2 0s-.1.1-.1.1c0 .1 0 .1.1.2 0 .1.1.1.2.1"/><path d="m17.1 4.7c0 .1.1.1.1.1h.3s0 0 0-.1h-.2c-.1 0-.1-.1-.1-.2-.1-.2 0-.4.2-.5-.1 0-.2.1-.3.3v.2z"/><path d="m17.6 4.5h-.1c-.1 0-.1 0-.2-.1 0 .1.1.1.2.1 0 .1.1.1.1 0z"/><path d="m17.3 4.3c-.1 0-.1.1 0 0v.1c.1 0 .2-.1.4-.2-.1.1-.2.1-.3.1h-.1c.1 0 .1 0 .1-.1.1 0 .1-.1.1-.1s0 0 0-.1c0 0 0 0 .1-.1 0 0 0 0 0-.1 0 0 0 0-.1 0s-.1.1-.1.1v.2s-.1.1-.1.2"/><path d="m17.6 3.9c0 .1 0 .1 0 0v.2s0-.1.1-.1c0 0-.1 0-.1-.1z"/><path d="m19.5 10.3c.1.1.1.2.2.4s.1.4.3.4h.1c-.1 0-.1-.2-.2-.4s-.2-.4-.4-.4c.1-.1.1-.1 0 0 0-.1 0-.1 0 0"/><path d="m20.3 11.1s.1 0 0 0c-.1-.1-.1-.2-.2-.4s-.2-.4-.3-.5c.1.1.2.2.2.4.1.3.2.5.3.5"/><path d="m20.6 11.1c-.1-.1-.1-.2-.2-.3 0-.1-.1-.2-.2-.3s.1.1.1.2c.1.2.1.4.3.4"/><path d="m19.8 10.1c.1 0 .1 0 .1-.1 0 0 0 0-.1.1 0-.1 0-.1 0 0-.1-.1-.2-.1-.3-.1v.1c0 .1.1.1.3.1-.1-.1 0-.1 0-.1"/><path d="m21.1 11.1h.1s.1-.1.1-.1v-.1s-.1-.1 0-.2c0-.1 0-.2 0-.3s0-.1 0-.2c0 0 0-.1 0-.2 0 0-.1-.1-.2-.1s-.2.1-.2.2c0-.1.1-.1.1-.1s.1 0 .1.1v.1c-.1 0-.1.1 0 .1.1.1.1.2 0 .3 0 .1 0 .1.1.2v.1s0 0-.1 0c0 0-.1 0-.1-.1 0 0 0-.1-.1-.1 0 .4.1.4.2.4"/><path d="m19 10.8v.1c0 .1.1.1.2.1h.1c.1 0 .1-.1.1-.2 0 0 0 0-.1 0v.1s0 0-.1 0c0 0 0 0-.1 0 0 0 0 0-.1-.1h.2v-.1c0-.1 0-.2 0-.3v-.1-.1s-.1-.1 0-.1c0 0 0-.1.1-.1s0 0 .1.1h.1s0 0 0-.1-.1-.2-.2-.2h-.1v.1.1.2.2c-.1.3-.1.4-.2.4z"/><path d="m20.7 11.3c.1 0 .1 0 .2-.1s0 0-.1 0c0 0 0 0-.1 0v.1c-.4-.1-.7-.1-1.1-.1h-.1-.1v.1c.1.1.7.1.9.1h.2c0-.1.1-.1.2-.1"/><path d="m19.5 3.6c.3.1.6.2.7.5 0 .1 0 .2.1.2 0-.3-.1-.5-.3-.6-.1-.1-.3-.2-.5-.1 0-.1-.1-.1-.1-.2s.1-.2.2-.2c-.1 0-.2 0-.2.2 0 .1 0 .1.1.2"/><path d="m19.6 3.3s.1 0 0 0c.1.1.1.1 0 .1h.1.1c-.1-.1-.1-.1-.2-.1z"/><path d="m20.1 3.6h.1-.1c0-.1-.2-.2-.3-.1-.1 0 .2 0 .3.1"/><path d="m20.1 4.2c0-.1-.1-.2-.2-.3.1.1.3.2.3.5v.1l.2-.1c-.2 0-.2-.1-.3-.2"/><path d="m19.6 4.3v.5h.1c.1 0 .1 0 .2-.1 0 0 .1-.1.1-.1 0-.2-.1-.4-.2-.5.1.3.2.4.1.5h-.1s0 0-.1-.1c0 0 0-.1-.1-.2z"/><path d="m19.8 4.6c0-.1 0-.1 0 0 0-.2-.1-.4-.1-.4 0 .1.1.2.1.4z"/><path d="m20 4.5c.1 0 .1-.1 0 0 0-.2-.1-.5-.2-.5.1.2.2.3.2.5"/><path d="m19.3 4.8v-.2c0 .1-.1.3-.1.4h.1c.1 0 .1 0 .2-.1s.1-.3.1-.4v.4c-.2-.1-.2 0-.3-.1z"/><path d="m19.4 4.7c0-.1 0-.1 0-.2z"/><path d="m19.4 4.1c-.1-.1-.2-.1-.3-.1.1 0 .2.1.3.1-.1 0 0 0 0 0"/><path d="m18.9 5h.1s.1 0 .2-.1l.1-.2s-.1 0-.1.1 0 .1-.1.2c-.1-.1-.1-.1-.2 0 .1-.1.1-.1.1-.2 0 0 0-.1.1-.1-.1.1-.2.1-.2.3 0-.1 0-.1 0 0"/><path d="m18.3 4.7c-.1 0-.1 0 0 0 .2.2.2.4.1.7.2-.3.1-.5-.1-.7"/><path d="m16.2 5.8s.1 0 0 0c.1 0 .1 0 0 0 0-.1.1-.1.1-.2s-.1 0-.1.1v.1c-.1-.1 0-.1 0 0"/><path d="m16.4 5.9c0-.2.1-.2.1-.3-.2 0-.2.1-.1.3"/><path d="m16.5 5.9s.1 0 0 0c.1 0 .1 0 0 0 .1-.1.1-.2.1-.2l.1-.1-.1.1s-.1.1 0 .1z"/><path d="m18.1 4.8c-.1 0-.1 0 0 0-.1.1-.1.1-.1.1.1.1.2.2.2.2 0 .1 0 .2-.1.2l-.5.4c-.3.3-.3.6-.1.8-.2-.3.1-.5.3-.8.1-.1.3-.2.4-.4.2-.1.1-.3-.1-.5"/><path d="m18.2 6.5c-.1 0-.1 0-.2 0-.1 0-.1 0-.1 0-.1 0-.2 0-.3-.3 0 0 0 0 0-.1v.1c0 .3.2.3.5.3 0 .1.1.1.1 0 .2.1.3.2.4.4 0 .1 0 .2-.1.3v.1h.1c.1-.1.2-.3.2-.4-.1-.2-.3-.3-.6-.4.1 0 .1 0 0 0"/><path d="m17.7 5.4c-.4.2-.6.7-.5 1s.3.5.6.5h.5.1v.1c.1-.1.1-.1.1-.2s-.1-.1-.2-.1-.2 0-.2 0c-.2 0-.4 0-.4-.1-.2-.1-.3-.3-.3-.5-.1-.1.1-.4.3-.7.2 0 .4-.1.4-.2v-.1c-.1.1-.2.2-.4.3"/><path d="m16.8 6.4c0 .1 0 .2.1.3s.2.1.3.2.1.2.2.3v.1c0 .1.1.2.2.2-.1 0-.2-.1-.2-.2 0-.2-.1-.3-.2-.4s-.2-.1-.3-.2c0 0 0 0-.1-.1 0-.1 0-.2.1-.4 0-.2 0-.4-.3-.5.3.2.5.3.2.7"/><path d="m16.6 6.7c.1.1.2.2.3.3s.2.2.2.3c0 .3.2.5.5.5h.1s0 0 0-.1c0 0 0 0-.1 0h-.1s0 0-.1 0c-.2 0-.2-.2-.3-.3 0-.2 0-.3-.2-.4 0-.1-.1-.2-.3-.3 0-.2.1-.3.1-.4 0 0 0 0 0-.1s0-.1 0-.2c0-.2 0-.3-.1-.3v.1c.1.1.1.2 0 .5z"/><path d="m17.9 7.8c-.1 0-.1 0 0 0z"/><path d="m18 7.7c-.1 0-.1 0 0 0 0 .1 0 .1 0 0l.1.1c0-.1-.1-.1-.1-.1"/><path d="m18.1 7.6c0 .1.1.1 0 0 .1.1.1.1.1.1s0-.1-.1-.1"/><path d="m18.3 7.1c-.1 0-.1 0 0 0-.1.1-.2.1-.2.2 0 0 0 .1.1.1h.1c0-.2-.1-.3 0-.3z"/><path d="m17.7 7.3c0 .1 0 .1 0 0v.2c0 .1 0 .1.1.2s-.1-.1-.1-.2c.1-.1.1-.1 0-.2z"/><path d="m17.8 7.2c-.1.1-.1.1 0 .2v.1.1h.1s0 0 0 0c-.1 0-.1-.1-.1-.2v-.1c0-.1 0-.1 0-.1z"/><path d="m18.1 7c-.1 0-.1 0-.1.1v.1.1.1c0 .1.1.1.1.1v-.1c-.1-.1-.1-.2 0-.4 0 .1 0 .1 0 0z"/><path d="m18.4 7.5h.1c0-.1 0-.1-.1-.1-.1 0-.1 0-.2.1 0 .1 0 .1.1.2 0 0 .1 0 .1.1h.1s.1-.1.1-.1.1-.1.1-.1c.1 0 .1-.1.1-.1.1-.1 0-.2-.1-.3v.1.1c0 .1 0 .1-.1.1-.1.1-.2.1-.2.2 0 0 0 0-.1 0 0 0 0 0-.1 0l.2-.2c-.1 0-.1 0 0 0"/><path d="m18.9 7.8c.1 0 .2 0 .2.1-.1-.2-.2-.2-.2-.1-.1-.1-.1-.1-.2-.1 0 0-.1 0-.1.1l.2.1h.2s0-.1-.1-.1-.1 0 0 0c-.1 0-.1 0 0 0"/><path d="m18.9 7.6c0 .1.2.1.3.1-.1 0-.2-.1-.2-.1v-.1h.1.1s0 0-.1 0h-.1s-.1 0-.1.1z"/><path d="m19.1 7.5s0 .1 0 0c0 .1 0 .1 0 0 0 .1.1.1.2.1s-.1 0-.2-.1"/><path d="m19.2 8.1c.2 0 .3-.1.4-.1-.1 0-.2 0-.4.1 0-.1 0-.1 0 0 0-.1 0-.1 0-.2.1-.1.2-.1.3-.2-.2 0-.3.1-.4.2 0 .1 0 .1.1.2-.1 0-.1 0 0 0"/><path d="m19.4 7.9h.2s0 0-.1 0c0-.1-.1 0-.1 0"/><path d="m19.1 7.2c0-.1-.1-.1-.1-.1 0 .1.1.2.2.3z"/><path d="m18.9 6.7c0 .1 0 .2.1.3 0 0 .1.1.1.1s0 0 0-.1c0 0 0 0-.1-.1 0 .1 0 0 0-.1 0 0-.1-.1-.1-.1"/><path d="m19.2 7.1c0 .2 0 .4.2.5s.1 0 .1-.1 0-.1 0-.2v.1c-.2 0-.2-.1-.3-.3.1.1.1 0 0 0"/><path d="m19.6 7.5c0 .3 0 .5.1.6h.1.1v-.2-.1.1.1c-.2-.1-.2-.3-.3-.5z"/><path d="m19.7 7.7v.2s0 0 0-.1v-.1c.1 0 .1 0 0 0"/><path d="m19.4 7.4c0-.1 0-.1 0-.1-.1 0 0 0 0 .1z"/><path d="m20.2 3.7c.1 0 .2 0 .2.1v.1s0 0-.1 0h.1.1s0 0 0-.1c-.1-.1-.2-.1-.3-.1"/><path d="m20.3 3.9c0-.1 0-.1 0 0 0-.1 0 0 0 0"/><path d="m20.4 4s0 .1 0 0c0 .1 0 .1 0 0 .1.1.1.1.1.2s0 .1-.1.1c0 0 0 0-.1 0s.1.1.1.1.1-.1 0-.2c.2-.1.1-.2 0-.2"/><path d="m20.4 4.3c.1-.1 0-.1 0 0 0-.1 0-.1 0 0z"/><path d="m20.5 4.9c.1-.1.2-.1.2-.2s0-.1 0-.1-.1 0-.2-.1h-.1.1.1v.1c-.1.2-.2.2-.1.3-.1 0-.1 0 0 0z"/><path d="m20.4 4.7c.1 0 .1 0 0 0 .1-.1.1-.1 0 0 0-.1 0-.1 0 0 0-.1 0 0 0 0z"/><path d="m20.7 3.5s.1.1.2.1c-.2-.3-.5-.4-.7-.4h-.1s0 0 .1.1h.1c.2-.1.3 0 .4.2.1-.1.1-.1 0 0z"/><path d="m20.5 3.3c-.1.1-.1.1 0 0 0 .1 0 .1 0 0 .1.1.1.1 0 0h.1c0 .1 0 .1-.1 0z"/><path d="m21.1 3.4c-.1-.1-.2-.2-.3-.2.1.2.3.2.4.3.1-.1 0-.2-.1-.1.1-.1.1 0 0 0z"/><path d="m21.8 9.3c-.1 0-.1 0 0 0-.1 0-.1 0-.1 0 0 .1-.1.2-.1.3-.2.1-.4.2-.7.2-.1 0-.2 0-.2.1l-.1.2c0 .1 0 .1-.1.1h-.2s0 0-.1 0c0 0 0 0 0-.1 0-.2 0-.4.1-.5 0 0 0-.1 0-.2-.2.2-.3.4-.3.8 0 .1 0 .1.1.1h.4c.1 0 .1 0 .1-.1 0-.2.1-.3.2-.3s.2 0 .3-.1h.1.1s0-.1.1-.1c.3-.1.4-.2.4-.4"/><path d="m21.2 9.3c.1-.1.1-.1.1-.1h-.1c-.1 0-.1 0 0 .1-.1 0-.1 0 0 0z"/><path d="m21.1 9.5c-.1 0-.1 0 0 0-.1 0-.1.1 0 0v.1s.1 0 .1-.1z"/><path d="m20.9 9.2c-.1 0-.1 0 0 0v.1c0-.1.1-.1.1-.1-.1-.1-.1-.1-.1 0"/><path d="m20.3 9.9s.1.1 0 0h.1c0-.1 0-.1.1-.2-.1.1-.1.1-.2.2z"/><path d="m22.2 9.8c.1 0 .1-.1.2-.1-.1-.1-.1-.1-.2-.1s-.1.2 0 .2"/><path d="m22.5 9.5c0-.1 0-.1 0-.2 0 .1-.1.1 0 .2-.1-.1-.1 0-.1 0s0 .1.1 0c-.1.1 0 .1 0 0"/><path d="m22.7 9.4h-.1s-.1.1 0 .1h.1s.1 0 0-.1c.1 0 .1 0 0 0"/><path d="m22.6 9.8c.1 0 .1 0 .2-.1-.1 0-.1 0-.2 0-.1 0-.1 0 0 .1-.1-.1-.1 0 0 0-.1 0 0 0 0 0"/><path d="m20.7 9.6h.1v-.1c0-.1 0 0-.1.1 0-.1 0-.1 0 0"/><path d="m19.9 9.2c-.1 0-.1 0-.2.1.1 0 .1 0 .2.1.1 0 .1-.3 0-.2"/><path d="m19.5 9c.1-.1 0-.1 0-.1h-.1c-.1 0 0 0 .1.1-.1 0-.1 0 0 0"/><path d="m19.2 9c-.1-.1-.2-.1-.2 0h.2c-.1 0 0 .1 0 0z"/><path d="m19.3 9.2c-.1 0-.1.1-.2.1.1 0 .1.1.2.1s.1-.2 0-.2"/><path d="m19.5 9.2h.1c0-.1 0-.1-.1 0 0-.1 0-.1 0 0 0-.1-.1-.1-.1-.1 0 .1.1.1.1.1"/><path d="m18.4 9c.1 0 .1 0 0 0 .1-.1.1-.1 0-.1s-.1 0-.1 0 0 0 .1.1z"/><path d="m18 9h.1c0-.1 0-.1-.1 0 0-.1 0-.1 0 0 0-.1-.1-.1-.1-.1s0 .1.1.1"/><path d="m17.8 8.6c-.1 0-.1 0-.1 0 0 .1 0 .1.1 0v.1c0 .1 0 0 0-.1.1.1 0 .1 0 0"/><path d="m17 8.2c.1 0 .1 0 0 0 .1.1.1.1.1 0 0 0 0 0 0-.1 0 0-.1-.1-.1-.1.1.1.1.1 0 .2z"/><path d="m16.9 8s-.1-.1-.1-.1v.1s0 .1.1.1c0 0 0 0 0-.1"/><path d="m16.9 8.2c-.1 0-.1 0-.2-.1 0 .1.1.2.2.1-.1.1 0 .1 0 .1s0 0 0-.1z"/><path d="m17.1 8.5h.1s0-.1-.1 0c.1-.1.1-.1 0 0 0-.1 0-.1-.1-.2 0 .1.1.2.1.2"/><path d="m20.1 9c0-.1 0-.1 0 0 0-.1 0-.1 0-.2 0 0 0 0-.1 0-.1 0-.2.1-.2.1 0 .1 0 .2.1.2s0 0 0-.1h.1z"/><path d="m20.3 9.1c-.2.1-.2.2-.2.2 0 .1.1.2.2.2s-.1-.1-.1-.1 0-.1.1-.1v-.1c.1 0 .1 0 0-.1"/><path d="m21.9 9.5c.1 0 .2 0 .2-.1s0-.2-.1-.3-.1.1-.1.1.1.1.1.1c-.1.1-.1.1-.1.2z"/><path d="m21.9 9v-.1s-.1-.1-.1-.1c-.1 0-.2-.1-.2-.1s-.1-.1-.1-.1c0 .1 0 .1.1.1 0 0 .1.1.2.1 0 0 .1 0 .1.1 0 0 0 0-.1.1s-.1 0-.1-.1c-.1-.1-.1-.2-.2-.2s-.1 0-.1.1c-.1.1-.2.1-.3.2 0 0 0 0-.1 0s0 0 0-.1c.1-.1.2-.1.2-.2h-.1-.1-.1c-.1 0-.1 0-.2 0h-.1v.1.2.1h.1c.1 0 .1-.1.1-.1s0 0 0-.1h.2.1c-.1 0-.1.1-.3.1-.1 0-.1.1-.1.2 0 0 0 .1.1.1h.1c.1 0 .1 0 .1-.1 0 0 0 0 .1-.1.1 0 .1-.1.2-.2v.1s0 0 .1-.1v.1h.1l.1.1h.1.1s0 0 .1-.1"/><path d="m20.4 8.2c-.1 0-.1 0 0 0-.1 0-.1.1 0 0l.2.3s.1.1.1.1 0 0 0-.1z"/><path d="m20.6 8.1c-.1 0-.1 0 0 0 0 .1 0 .1.1.2.1.1.2.3.3.3s0 0 .1-.1c0-.1 0-.2 0-.2l-.2-.3v.2s.1.1.1.1v.1.1s0 0-.1 0l-.2-.2c0-.1-.1-.1-.1-.2"/><path d="m20.9 8.4-.1-.2z"/><path d="m20.5 8.2.1.2z"/><path d="m21.2 8.4c-.1-.1-.1-.1-.1-.2s0-.1-.1-.1c0 .2.1.4.2.5 0-.2-.1-.3-.1-.4v-.1.1l.1.2c.1-.1.1-.1 0 0z"/><path d="m20.7 7.1v.2c0 .1.1.2.1.2.1.2.1.3.2.4h.1s0 0 .1-.1c.1-.2 0-.7-.1-.9v.1c-.1.2 0 .4-.1.7 0 .1 0 .1-.1.1 0 0 0 0-.1 0-.1-.1-.1-.2-.1-.3 0-.2 0-.3 0-.4z"/><path d="m20.9 7.5c.1 0 .1 0 0 0 0-.2-.1-.4-.2-.5.1.2.2.4.2.5z"/><path d="m20.5 7.2s0 .1 0 0c0 .1 0 .1 0 0v.3c0 .1.1.2.1.3v.1s0 0-.1 0c-.1-.1-.2-.2-.2-.3 0-.1-.1-.1-.1-.2v.1c.1.2.3.5.5.6s.1 0 .1-.1c0-.2-.1-.5-.3-.8z"/><path d="m20.5 7.8c.1-.1.1-.1 0 0-.1-.3-.2-.4-.3-.5.1.1.2.3.3.5z"/><path d="m19.7 7.4c.2.2.3.4.5.7 0 0 .1.1.1.1s.1 0 .1-.1c0-.2-.2-.4-.3-.6.1.1.2.3.3.4v.1s0 0-.1 0c-.3-.3-.4-.5-.6-.6z"/><path d="m20.2 7.9-.4-.5v.1z"/><path d="m21.4 3.6c.1.1.2.1.2.1v-.1s0-.1-.1-.1v.1s0 0-.1 0c0-.1 0-.1 0-.2v.2c0-.1 0-.1 0 0"/><path d="m20.9 3.9c-.1 0-.1 0 0 0 0 .1.1.1.1.1h.1s0-.1 0-.2 0 0-.1-.1 0 0-.1 0c0 0 0 0-.1 0 0 0 0 0-.1 0 .2 0 .3 0 .2.2.1-.1 0 0 0 0"/><path d="m21 4.3c-.1 0-.1 0 0 0 0 .1.1.2.1.2h.1v-.1c-.1-.1-.1-.2-.1-.3s0 0-.1 0h-.1.1c.1 0 .1.1 0 .2.1 0 .1 0 0 0"/><path d="m20.6 5.9c.1.1.1.2.2.3.1.1.1.2.1.2s0 0 0-.1c0-.2-.1-.5-.3-.8v.1c.1.1.2.3.2.4v.1c0-.1-.1-.2-.2-.2 0-.1 0 0 0 0"/><path d="m20.5 6c.1.3.2.5.3.7v.2s0 0-.1 0h-.1c-.1-.2-.2-.4-.3-.5v.1c.1.2.2.3.3.5 0 .1.1.1.1.1s.1 0 .1-.1c.1-.1.1-.2 0-.3 0-.3-.1-.5-.3-.7z"/><path d="m20.7 6.6-.2-.5v.1z"/><path d="m20.3 6.4c0-.1 0-.1 0 0-.1-.1-.1-.1 0 0-.1 0-.1 0 0 0 0 .2.1.3.2.6v.1s0 0-.1 0c0 0-.1 0-.1-.1-.1-.1-.1-.2-.2-.3-.1-.1-.1-.1-.1-.2l.3.5c0 .1.1.1.2.1s.1 0 .1-.1 0-.2 0-.2c-.2-.1-.3-.3-.3-.4"/><path d="m20.1 6.5.3.5s0 0 0-.1l-.3-.5v.1c0-.1-.1-.1 0 0-.1-.1-.1-.1 0 0"/><path d="m19.4 6.7c.1.2.3.4.5.6 0 0 .1.1.1.1h.1s0-.1 0-.2c-.1-.2-.2-.4-.3-.5s0 0-.1 0c.1.2.2.3.3.5v.1s0 0-.1 0c0 0 0 0-.1 0 0-.3-.2-.4-.4-.6.1-.1 0-.1 0 0 0-.1 0-.1 0 0"/><path d="m19.5 6.6c.1.2.2.3.4.5-.1-.3-.2-.4-.4-.5 0-.1 0-.1 0 0"/><path d="m18.9 6.6c.2.3.4.6.7.7s0 0 0-.1c-.1-.2-.2-.3-.4-.6.1.1.2.3.3.4v.1c-.2-.2-.3-.3-.6-.5.1-.1.1-.1 0 0 .1-.1 0-.1 0 0z"/><path d="m20.2 5.3v.1c.1-.1.1-.2.1-.2v-.4.1.1.1.1s0 0-.1.1z"/><path d="m19.9 4.9c-.1.2-.1.4-.1.5s.1.1.1.1c.1 0 .2-.1.2-.2 0-.2 0-.4 0-.6v-.1.5c-.1.3-.1.3-.1.3s-.1 0-.1-.1 0-.3 0-.4z"/><path d="m20 5.3c0-.1 0-.3 0-.4z"/><path d="m19.4 5.5c-.1-.1-.1-.1-.1-.1l.2-.4c0 .1-.1.2-.1.2 0 .1 0 .1-.1.2v.1c0 .1.1.1.1 0 .2.1.3 0 .3-.1l.1-.4-.1.3c-.1.1-.1.2-.3.2"/><path d="m19.6 4.9s0 .1 0 0c0 .1-.1.3-.1.4.1-.1.1-.2.1-.4z"/><path d="m19.1 5c0 .1-.1.2-.2.3v.1s0 0 .1.1h.1c.1 0 .1 0 .1-.1l.1-.4c-.1.1-.1.3-.2.3h-.1s0 0-.1 0v-.1c.2 0 .2-.1.2-.2z"/><path d="m19.1 5.4c.1-.1.1-.2.2-.3-.1 0-.2.1-.2.3z"/><path d="m19 5.1c0 .1-.1.1-.1.2 0-.1.1-.1.1-.2 0-.1 0-.1 0 0"/><path d="m18.7 5.4s.1.1.1.1l-.1-.1c.1 0 .1 0 0 0 .1-.1.1-.1.1-.1.1-.1.1-.1.1-.2 0 0 0 0 0-.1-.1.2-.1.2-.2.4 0-.1 0 0 0 0"/><path d="m18.5 6c0 .1 0 .1.1.2 0 0 0 .1.1.1v.2h.1.1c.1 0 .1 0 .1-.1v-.1c-.1-.3-.2-.5 0-.7-.1.1-.1.1-.1.3v.2.2.1s0 0-.1-.1c0-.1 0-.1-.1-.2 0-.1-.1-.1-.2-.1.1-.2.1-.3.2-.4-.2.1-.2.2-.2.4"/><path d="m19.1 6.5s.1.1.1 0c.1 0 .2-.1.2-.1v-.1c-.1-.2-.1-.4 0-.6-.1.2-.1.4 0 .6v.1s0 0-.1 0h-.1c-.2-.3-.2-.5-.1-.7 0 0 0 0 0-.1-.1.2-.1.3 0 .5-.1.2-.1.3 0 .4"/><path d="m19.2 5.6c-.2.2-.1.4 0 .7 0-.3 0-.5 0-.7z"/><path d="m19.6 5.7c-.1 0-.1 0 0 0-.1.2-.1.4-.1.6 0 .1.1.2.2.2s.2-.1.2-.2c0-.2 0-.4 0-.6v.5.1s0 0-.1 0c0 0-.1 0-.1-.1-.2-.1-.2-.3-.1-.5z"/><path d="m19.7 5.6c-.1.2-.1.4-.1.5.1-.1.1-.3.1-.5z"/><path d="m20.2 5.5c.1.3.1.4.1.5s0 .1-.1.1c0 0-.1 0-.1-.1 0-.2 0-.3 0-.4-.1.2-.1.4-.1.6h.1c.1 0 .1-.1.2-.2s0-.3-.1-.5z"/><path d="m20.2 6c0-.2 0-.3 0-.4-.1.1-.1.2 0 .4z"/><path d="m20.4 5.3v.2.1s-.1-.1-.1-.1v-.1.1c0 .1.1.2.1.3h.1c.1-.2.1-.4-.1-.5z"/><path d="m20.6 5.2c0 .1 0 .1 0 0 0 .1.1.2 0 .2l.1-.1c.1.1 0 0-.1-.1.1.1.1 0 0 0"/><path d="m20.9 5.2c-.1 0-.1 0 0 0l-.1-.1c0 .1.1.1.1.1s0-.1.1-.1c0 0 .1-.1.1-.1-.1 0-.2 0-.2-.1l.1.1c-.1.1-.1.1-.1.2z"/><path d="m21.1 5c.1-.1.1-.2.1-.3-.1 0-.1-.1-.2-.1v.1l.1.1v.1s0 0-.1 0c0 0 0 0-.1 0v.1c.1-.1.1 0 .2 0"/><path d="m22.8 9.2c.1 0 .1 0 0 0 0-.1 0-.1-.1-.1s-.1 0-.1-.1h-.1v.1h-.1s-.1 0-.1-.1v.1.2c-.1.1-.2.2-.3.2 0 0 0 0-.1 0h.1c.1 0 .2-.1.3-.2.1-.2.3-.4.4-.4 0 .3 0 .3.1.3z"/><path d="m22.9 9.9c.1 0 .1 0 .2-.1h.1c.1 0 .1 0 .2-.1h-.1v-.1c-.1 0-.1 0-.1.1v.1c-.2.1-.4.2-.6.2s-.3 0-.5-.1c-.1 0-.2 0-.2-.1-.1 0-.1 0-.1 0l.2.1s.1 0 .1.1.1.1.1.1v-.1h.3.2c.1 0 .1.1.2.1h.1c-.1 0-.1-.1-.1-.2-.1 0-.1 0 0 0"/><path d="m23.1 9.5c.1 0 .2 0 .3-.1 0-.1 0-.1 0-.2s-.1-.1-.2-.1h-.1c-.2.1-.2.3-.1.4z"/><path d="m23.5 9.2c0 .1 0 .1 0 0 .1.1.1.1.2.1v-.1c-.1 0-.2 0-.2 0z"/><path d="m23.5 9c0-.1 0 0 0 0-.1 0-.1.1-.1.1v.1h.1s.1 0 .1-.1c0 0 0 0-.1-.1z"/><path d="m23.4 8.8c-.1 0-.1 0 0 0-.1.1-.1.1 0 0-.1.1-.1.2-.1.2.1 0 .1 0 .1-.2 0 .1 0 .1 0 0z"/><path d="m23.8 8.9c.1 0 .1 0 0 0 .1-.1.1-.1 0-.2h-.1-.1c0 .1 0 .1-.1.1s0 .1.1.1c.1.1.1 0 .2 0z"/><path d="m19 9.5c.2 0 .3.1.3.1s0 .1-.1.1h.1s.1-.1.1-.1h.1s.1 0 .1.1v.1c.1 0 .1 0 .1-.1s.1-.1.1-.1v-.1c-.1.1-.3.1-.4.1-.2 0-.5-.1-.8-.2-.1 0-.1-.1-.1-.2l.1-.3c0-.1.1-.1.2-.1.2 0 .4.1.7.3v-.1l-.1-.1s-.1-.1 0-.1c0-.1-.1-.1-.1-.1v.1c-.2 0-.2-.1-.3-.2 0-.1-.1-.1-.1-.1v.1s0 0-.1.1c0 0 0 0-.1 0h-.1-.1c.1 0 .1.1.1.2l-.1.4c0 .1 0 .2.1.3.1 0 .1.1.1.1s0 .1-.1.1h.1c.1-.2.2-.2.3-.3-.1 0 0 0 0 0"/><path d="m18.6 8.8c0-.1-.1-.2-.2-.2 0 .1.1.1.2.2z"/><path d="m17.4 9s.1 0 0 0c.1 0 .1 0 0 0l.3.1s.1 0 .1.1v.1h.1.1.1.1.3v-.1c-.1 0-.2 0-.3 0-.2 0-.4-.1-.6-.2 0 0-.1-.1 0-.2 0-.1.1-.2.2-.3h.1.1c.1 0 .1 0 .1-.1-.1 0-.1 0-.1-.1 0 0-.1-.1-.1-.1v.1.1c-.1.1-.2.3-.2.5 0 .1 0 .2-.1.2-.3-.1-.3-.1-.2-.1z"/><path d="m18.3 8.5c0-.1 0-.2 0-.2s-.1-.1-.2-.1h-.1s-.1.1-.1.2 0 .2.1.2h.1c.1.1.1.1.2-.1"/><path d="m18.4 8.3s.1 0 .1-.1c0 0 0 0 0-.1h-.1c-.1.1-.1.1 0 .2-.1-.1-.1 0 0 0z"/><path d="m18.2 8v.1s0 0 0-.1c.1 0 .1 0 0 0z"/><path d="m17.9 8.1c.1 0 .1.1 0 0 .1.1.1.1.1.1 0-.2 0-.2-.1-.1.1-.1 0-.1 0 0 0-.1 0-.1 0 0"/><path d="m16.8 8.7h.2.2.1c-.3-.1-.6-.2-.7-.5 0-.1 0-.1 0-.2.1-.1.1-.2.2-.2h.1.1c.2.2.3.4.4.6v.1-.1-.1c.1-.1.1-.2 0-.2 0 .1 0 .1-.1.1 0 0 0 0-.1-.1s-.2-.2-.2-.3c0 0-.1-.1 0-.1 0-.1-.1-.1-.1-.1 0 .1 0 .1-.1.2-.2.1-.3.2-.4.3 0 0 0 .1-.1.1 0 0 0 0-.1 0 0 .1 0 .1.1.1 0 0 .1 0 .1.1 0 0 .1.1.1.1v.1s0 0-.1 0 .1.1.1.1h.1l.1.1c.1-.2.1-.2.1-.1z"/><path d="m16.3 7.3v.2c0 .1.1.2.2.2.1 0 .1 0 .1-.1s0-.2 0-.3c-.1-.1-.1-.1-.2-.1s-.1.1-.1.1"/><path d="m16.4 7.2c.1 0 .1 0 0 0 .1-.1.1-.1.1-.1s0 0-.1 0v.1c0-.1 0 0 0 0"/><path d="m16.3 7c-.1 0-.1 0-.1 0 0 .1.1.1.1.1 0 .1 0 0 0-.1z"/><path d="m16.1 7.1s-.1.1 0 0c-.1.1-.1.1-.1.1s.1.1.1.1c.1 0 .1-.1 0-.2z"/><path d="m16.1 6.9c0 .1.1.1 0 0 .1.1.1.1.1.1s0 0 0-.1c0 0 0 0 0-.1v-.1s0 0-.1 0c0 0-.1.1 0 .2-.1-.1 0 0 0 0"/><path d="m18.5 9.6c0-.1 0-.1 0-.2 0 0-.1-.1-.1-.1-.1 0-.1 0-.1.1v.2s.1.1.1.1.1-.1.1-.1"/><path d="m17.5 10.3c.1 0 .1 0 .2-.1 0-.1 0-.1 0-.2 0 0-.1-.1-.1-.1-.1 0-.1 0-.1.1v.2c-.1.1 0 .1 0 .1"/><path d="m21.8 10.7v.2s.1.1.1.1c.1 0 .1 0 .2-.1 0-.1 0-.1 0-.2 0 0-.1-.1-.1-.1-.1 0-.2.1-.2.1"/><path d="m18.9 10.1c-.2-.1-.3-.3-.4-.4v.1c0 .1.2.3.4.3z"/><path d="m18.5 10.7c.1 0 .3.1.3.1v-.1c-.1 0-.2 0-.3 0z"/><path d="m18.3 10.7c-.1 0-.1 0 0 0-.1 0-.2 0-.2 0s0 0 0 0h.2c0 .1.1.1 0 0 .1 0 .1 0 0 0 .1-.1 0-.2-.1-.2s-.2 0-.2.1h.1c.1 0 .1-.1.2-.1z"/><path d="m17.2 9.5c-.1-.1-.1-.1-.1-.1-.1 0-.1 0-.1 0s0 0-.1 0c.2.1.3.2.3.1.1.1.1 0 0 0 .1 0 .1-.1.1-.1-.1-.1-.2-.1-.4-.1s0 0 .1.1c.1 0 .2 0 .2.1.1-.1.1-.1 0 0z"/><path d="m22.2 10.3c0-.1.1-.1 0 0h.3.1.1c-.1 0-.2-.1-.3-.1-.2 0-.2 0-.2.1-.1 0-.1 0-.1.1s.1.2.2.1c.1 0 .2 0 .3-.1s0 0-.1 0c0 0-.1 0-.2 0h-.1s0 0 0-.1z"/><path d="m21.9 10.2c-.2 0-.3.1-.4.1s-.1 0-.2 0h.1.3c.1.1.2.1.2-.1.1.1.1.1 0 0 .1.1.1 0 0 0"/><path d="m22 10.4c-.3 0-.4.1-.5.2 0 0 0 .1.1.2h.1z"/><path d="m21.6 10.8-.3.1h.1l.2-.1c.1.1.1.1 0 0 .1 0 .1 0 0 0"/><path d="m18.4 10.5c0 .1 0 .1 0 0 .1.1.1.1 0 0 .1 0 .2-.1.1-.1 0-.1-.3-.3-.8-.3.3.1.5.1.6.2.2.1.2.1.1.2.1 0 .1 0 0 0z"/><path d="m17.8 10c0-.1-.1-.2-.4-.4h.1c.1 0 .2.1.2.2 0 .2.1.2.1.2z"/><path d="m18.3 9.7c0 .1 0 .1 0 0-.1 0-.1 0-.1 0-.2-.1-.4-.2-.7-.3.2.1.3.2.5.3.1 0 .1 0 .1.1.1 0 .1.1.2.1s.1 0 0-.2c.1.1.1.1 0 0z"/><path d="m20 11.7c-.1.2-.1.3-.1.4h.1s.1 0 .1-.1c0 0 0-.1-.1-.3z"/><path d="m20.3 11.7v.4s0 .1.1.1h.1s0 0 0-.1v-.3c-.1-.1-.1-.1-.2-.1z"/><path d="m19.3 12.3c.1 0 .1 0 0 0 .1 0 .1-.1 0 0 .1-.1.1-.1 0-.1v.1c-.1 0 0 0 0 0"/><path d="m21 12.2c-.1 0-.1 0-.2 0v.1c.1 0 .1 0 .2-.1 0 .1 0 .1 0 0"/><path d="m19.8 11.9c-.1 0-.3.1-.4.2l.1.1h.1c.1 0 .1-.1.2-.1z"/><path d="m20.5 12.1c.1 0 .2.1.3.1l.1-.1c-.1-.1-.2-.2-.4-.2z"/><path d="m20.5 12.8c.1 0 .1 0 0 0 .1-.1.1-.1.1-.1s-.1-.1-.2-.1-.1 0-.2-.1-.1 0-.1.1v.1c.2 0 .3 0 .4.1z"/><path d="m19.4 12.7c.1 0 .2-.1.2-.1.1-.1.2-.2.3-.2s.1-.1.2-.1h-.1s-.1.1-.2.1c-.3 0-.4.1-.4.3-.1 0 0 0 0 0z"/><path d="m19.8 12.7c0 .1 0 .1 0 0 .1-.1.2-.2.3-.2.1-.1.2-.1.3-.2v-.1s0 0-.1 0c0 0 0 0-.1 0s-.1 0-.1.1c-.1.1-.1.1-.2.2s-.1.1-.2.2c0-.1 0 0 .1 0z"/><path d="m20.8 12.6c.1.1.1.1.1.1h.1c-.1-.2-.2-.2-.4-.3-.1 0-.1 0-.2-.1s-.1.1 0 .1.1 0 .1.1h.1c.1 0 .1 0 .2.1"/><path d="m18.5 12.2v-.1s0 0-.1 0-.2 0-.3.1 0 0 0-.1l.1-.1c-.1 0-.3 0-.5 0h-.1.2c.1.1.2.1.4.1l-.1-.1c.1.2.2.2.4.2v-.1s0 0 0-.1l.1.2c0 .1.1.1.2.1s.1 0 .1-.1v.1c-.1 0-.1 0-.1.1s-.1.1-.1.1 0 0 0-.1v-.1h-.1c.1-.3 0-.2-.1-.1m.2.2c.2 0 .3-.1.4-.2 0-.1.1-.1.1-.1h.1.1c.1-.1.2-.2.3-.2.1 0 .1 0 .1-.1v-.1h-.1c-.1 0-.2 0-.3.1 0 0 0 0-.1 0h-.1c-.1-.1-.1-.1-.2-.1s0 .1-.1.1c0 0 0 0-.1 0l-.1-.2c0-.1-.1-.1-.1-.1h-.1v.1.1.1s0 0-.1 0c-.1-.2-.2-.2-.4-.2v.1.1.1c-.1-.1-.2-.1-.3-.1h-.1l-.2.1s-.1.1-.1.1v.1h.3.2.1s-.1.1-.1.1.1.1.1 0h.1l.2-.1v.1l-.1.1v.1h.1.1c.1 0 .2-.1.3-.2h.1z"/><path d="m17.3 11.3c-.1 0-.1 0 0 0h-.2s0 0 0-.1h-.1-.1-.1-.1-.1.1c.1 0 .1 0 .2-.1s0 0 0-.1-.1-.1-.2-.1h-.2-.1.2c-.1-.1-.1-.2-.2-.2s0 0 0-.1c0 .1.1.2.1.1.1-.1.1.1.1.1 0 .1.1.2.2.3v-.1s0 0 0-.1v.1c0 .2 0 .3.1.4h.1c.2-.2.2-.2.3-.1zm.3.3c0-.1 0-.1 0 0-.2-.2-.3-.4-.3-.6s0 .1-.1.1c0-.3 0-.4-.1-.5h-.1v.1.1.1c0-.2 0-.4-.1-.5 0 .1 0 .1-.1.1 0 0 0 0-.1-.1s-.1-.1-.1-.1v.1.1.1s0 0-.1 0c0 0 0 0-.1 0h-.1v.1l.2.1s0 0-.1 0h-.2c.1.1.2.2.5.2h-.3c.1.1.2.2.4.2h.1s0 0 .1.1v.1h.2c.1 0 .2.1.4.2z"/><path d="m17.6 11c-.1 0-.1 0 0 0-.1 0-.1 0-.1 0h.1c0 .1 0 .1 0 0 .1 0 .1 0 0 0z"/><path d="m17 11.6c-.1 0-.1.1 0 0-.1.1-.1.2 0 .2h.1c0-.2 0-.2-.1-.2"/><path d="m17.8 11.2c0-.1-.1-.1 0 0-.1 0-.1 0-.1 0h-.1s-.1 0-.1.1v.1s.1 0 .1.1.1.1.1.1v-.1c0-.2 0-.2.1-.3z"/><path d="m17.2 11.8h.1c0-.1.1-.1.2-.1h-.1c-.1 0-.1 0-.1-.1 0 0 0 0-.1 0v.1c-.1 0 0 0 0 .1"/><path d="m15.7 9.3s0-.1.1-.1c0 .1-.1.2-.1.3v.2h.1c-.1.1-.1.1 0 .2s-.1 0-.2 0 .1 0 .1-.1-.1-.2-.3-.2h.1.1c0-.1-.1-.2-.3-.2h.1s-.1-.1-.1-.1 0 0 0-.1.1.1.1.1 0 0 .1-.1v.2c0 .1.1.1.1.1.1-.1.1-.2.1-.2m-.1-.1c0-.2 0-.3 0-.3s0 0-.1.1c0 0 0 .1-.1.1 0 0-.1 0-.1-.1 0 0 0 0-.1 0s-.1 0-.1.1c0 0 0 0-.1 0 0 0 0 0-.1 0v.1.1s0 0-.1 0v.1c.1.1.1.1.2.1h.1s0 0-.1 0v.1c0 .1.1.2.4.2 0 0 .1 0 .1.1h-.1c.1.1.2.1.3.2.1 0 .2.1.2.2.1.1.2.2.3.2s0 0 0-.1c-.3-.2-.3-.4-.2-.7 0-.1 0-.1 0-.2s0 0-.1 0c0 0 0 0-.1 0s0 0 0-.1c.2-.2.2-.3.1-.4 0 0 0-.1-.1-.1-.1 0-.1.1-.2.3.1 0 .1 0 0 0"/><path d="m16.1 9.9s.1.1.1.3 0 0 0-.1 0-.1.1-.2c0 0 0 0 0-.1 0 0 0-.1-.1-.1s-.1 0-.2 0c.1.1.1.1.1.2 0-.1 0 0 0 0"/><path d="m16.2 9.6s0 .1 0 0c-.1.1 0 .1 0 .1h.1v-.1s0 0-.1 0z"/><path d="m15.6 10.2c-.1.1-.1.1-.1.1h.1.1s0 0-.1-.1z"/><path d="m15.9 10.2c-.1 0-.1-.1 0 0-.1 0-.1 0-.1 0v.2h.1.1.1.1s0-.1-.1-.1c-.2 0-.2-.1-.2-.1"/><path d="m14.9 7.6c.1.1.1.1.1.1s0 0 0-.1v-.2-.1s.1 0 .1-.1v.1c-.1.1-.1.1-.1.2h.1s0 0-.1.1c0 0-.1 0-.1.1s0 .1.1.1 0 0-.1.1v.1s.1.1 0 .1h-.1v-.1c0-.1 0-.1-.1-.1 0 0 0 0-.1 0 .4 0 .4-.1.3-.3 0 .1 0 .1 0 0m-.1.5s.1 0 .1.1c0 0 0 .1.1.1s.1.1.2.3c0 .1 0 .1.1.1s0 0 0-.1c-.1-.2-.1-.4 0-.4v-.1s.1 0 .1-.1c.1-.1.1-.1.1-.2 0 0 0 0-.1 0 0 0-.1 0-.1.1s0 0 0-.1c.2-.1.3-.2.3-.3v-.1c-.1 0-.1 0-.1 0s0 0 0-.1c.1-.1.1-.2.1-.3s-.1.1-.1.1h-.1c-.4 0-.4.2-.4.3v.1s0 0-.1-.1 0 0-.1.1c0 .1-.1.1 0 .2l.1.1v.1h-.1v.1c-.1 0-.1.1 0 .1"/><path d="m15.5 8.2s0 .1 0 0c.1.1.1.1 0 0 .1.1.1.1.2.1v-.1s-.1 0-.2 0z"/><path d="m14.8 8.4c-.1 0-.1 0 0 0-.1 0-.1 0-.1.1v.1h.1s.1 0 .1-.1c-.1 0-.1-.1-.1-.1"/><path d="m14.9 8.7h.2s0 0 0-.1h-.1v-.1s0-.1-.1-.1c0 0 0 0-.1 0 .1.1 0 .2.1.3-.1-.1-.1 0 0 0-.1 0-.1 0 0 0"/><path d="m15.4 8.7c.1-.1.1-.1.2-.2 0 0 .1 0 .1-.1 0 0 0-.1-.1-.1s-.1 0-.2-.1v.1.1z"/><path d="m22.8 10.9h-.1c-.1 0-.1 0-.1.1v.1s.1.1 0 .1v.1h.1.1s0 0 0-.1v-.1c.1-.1.1-.2 0-.2"/><path d="m24 9.6c-.1 0-.1.1-.1.1 0 .1 0 .1.1.1s.1 0 .1.1h.1s.1 0 .1-.1v-.1-.1c-.1.1-.2 0-.3 0"/><path d="m24.7 8.3h.1.1s.1 0 .1-.1v-.1s0 0-.1-.1c0-.1-.1-.1-.1-.1-.1 0-.1.1-.1.1-.1.2-.1.3 0 .3"/><path d="m22.9 11.6s.1 0 0 0c.1.1.1.2.2.2s.1-.1.1-.2 0-.1-.1-.1h-.1s0 0-.1 0z"/><path d="m24.4 10.2h.1.1s.1 0 .1-.1c0 0 0-.1 0-.2 0 0 0 0-.1 0 0 0 0 0-.1 0h-.1z"/><path d="m25.5 8.5s0-.1 0-.2c0 0 0 0-.1 0h-.1s0 .1-.1.1v.1s0 .1.1.1h.1c0-.1 0-.1.1-.1z"/><path d="m21.5 12.2c.1 0 .2 0 .3-.1.1 0 .1 0 .2-.1.2-.1.6-.2.7-.4-.2 0-.5.2-.7.3s-.3.1-.5.1h-.1-.1s.1-.1.2-.1c.1 0 .2-.1.4-.2.1 0 .2-.1.3-.1s.1-.1.2-.1h.1-.1c-.3 0-.7.2-1 .3h-.1-.1-.1c-.2-.1-.4-.1-.6-.2 0 0-.1 0-.1.1v.1c.1 0 .3 0 .5.1.1.1.2.1.4.2.1.1.1.1.2.1"/><path d="m21.8 12.4c.4-.1.6-.2.9-.4-.1 0-.2.1-.3.1-.1.1-.3.1-.4.2s0 0 .1-.1l.6-.3s0 0-.1 0-.2.1-.4.1c-.2.1-.4.2-.6.2-.1 0-.1 0-.2 0 0 .2.2.2.4.2"/><path d="m21.2 11.9c.1-.1.1-.1 0 0 .3-.1.5-.2.7-.3.1 0 .2 0 .2-.1h.1s0 0 0-.1h-.1c-.1 0-.1 0-.2.1-.1 0-.1 0-.2.1 0 0-.1 0-.1.1h-.1s.1-.1.1-.1l.2-.1c.1-.1.2-.1.3-.1h.1-.1c-.1 0-.1 0-.2.1-.1 0-.1 0-.1 0h-.1c-.1.1-.1.1-.2.2s-.2.2-.3.2c-.1-.1 0 0 0 0"/><path d="m22.8 11.4c.1-.1.3-.2.5-.3s.4-.2.6-.5c.2-.1.3-.3.3-.4s0-.1 0-.1c-.1.1-.2.3-.3.4s-.3.2-.4.4c-.1.1-.1.1-.1.1s0 0 0-.1c.1-.1.3-.3.5-.5.2-.1.3-.3.3-.4-.1.1-.2.2-.3.2-.2.2-.4.3-.5.5s-.3.3-.4.4c-.2.2-.2.2-.2.3-.1 0-.1 0 0 0-.1 0 0 .1 0 0"/><path d="m23.2 11.3h.1.2.2c.1-.1.3-.2.4-.4.1-.1.2-.2.2-.3-.2.2-.4.4-.6.6s0 0 0-.1h.1c.2-.1.4-.3.5-.5s0 0-.1 0c-.2.2-.5.5-1 .7z"/><path d="m23.4 10.5c.1-.1.1-.1.2-.2s.2-.1.2-.2 0 0 0 0c-.1.1-.2.3-.4.4-.1.1-.2.2-.2.3s0 .2-.1.3c.1 0 .1-.1.2-.2.1-.2.2-.3.3-.3.1-.1.2-.1.2-.2v-.1c-.1.1-.2.2-.3.4 0 0-.1.1-.1.1s0 0 0-.1z"/><path d="m24.7 9.7s.1-.1.1-.1c.2-.4.3-.7.3-.9 0-.1 0-.1 0-.1v.1c-.1 0-.2.2-.2.3-.1.2-.2.5-.2.7-.1-.1-.1-.1 0 0h-.1s0 0 0-.1.1-.2.2-.4.2-.3.2-.5v-.1c-.2.2-.3.5-.4.8v.1c0 .3-.1.4-.2.5v.1h.1c.1-.1.1-.2.2-.3-.1 0-.1-.1 0-.1"/><path d="m24.3 9.7s0-.1.1-.2c0-.1 0-.2.1-.3.1-.2.2-.4.3-.6 0 0 0 0 0-.1-.1.1-.1.2-.1.3s-.1.3-.2.4v-.1s0-.1.1-.1c0 0 .1-.1.1-.2s0-.2.1-.2c-.5.3-.7.8-.5 1.1z"/><path d="m24.9 9.8c.1 0 .1-.1.1-.1.1-.1.2-.3.2-.5 0-.1.1-.2.1-.3s0-.1 0-.1c-.1.1-.2.3-.2.4 0 .3-.1.4-.1.4s0 0 0-.1c.1-.1.1-.2.2-.3 0-.1.1-.2.2-.3 0-.1 0-.1 0-.1s0 0-.1 0c-.2.2-.3.3-.3.5-.1.2-.2.3-.4.5v.1h.1c.1-.1.1-.1.2-.1z"/><path d="m24.9 8c.1 0 .1 0 0 0 .1 0 .1-.1.1-.2s0-.2 0-.3c0-.2 0-.2 0-.3v.1.3c-.1-.2 0-.4 0-.5s0-.1 0-.2c-.3.7-.3 1-.1 1.1"/><path d="m25 8.4s0 .1 0 0c0 .1 0 .1 0 0 .1.1.1.1 0 0 .1-.1.1-.2.1-.2 0-.1.1-.2.1-.2 0-.1.1-.1.1-.2.1-.1.1-.3.1-.5 0-.1 0-.2-.1-.2v.3c0 .1-.1.3 0 .4v.1c0-.2 0-.3 0-.4.1-.1.1-.2.1-.3-.1.1-.1.3-.1.7v.3c-.3 0-.3.1-.3.2"/><path d="m25.2 8.2h.1l.3-.3s.1-.1.1-.2 0-.1 0-.2 0-.2-.1-.3v.4c0 .1-.1.2-.1.2v.1-.2-.3c0-.1 0-.1 0-.1 0 .3 0 .5-.1.6z"/><path d="m24.7 23.4h-1.3v-1.7h-3.2v-.2h2.4l-.2-.4h-2.2v-.1h2.2l-.2-.4h-1.9v-.1h1l-.3-.5h-.7v-.1h.7l.4.7h.8v-1.1h-2v-.1h2v-.3h-.7-.1v-.3h-1.1v-.1h1.2v.3h.8l.1-.7h-2.1v-.1h2.1l-.1-.2h-.8-.1v-.4h.1v.3h.9v-.2h-.6-.1v-.4h.1v.3h.7v-.6h-1.1v.5h-1.2v-1.9c2.8.1 5 2.6 5 5.7 0 .5-.2 1.3-.5 2.1m-7.3.7s-.1 0-.2 0-.2-.1-.2-.1.1-.1.2-.1h.2v.2c0-.1 0 0 0 0m3.3 1.5h.1.2v.1s-.1 0-.2 0-.1 0-.2 0c.1 0 .1 0 .1-.1zm.5 0s.1-.1.2-.1h.1s0 .1.1.1-.1.1-.2.1-.1 0-.2 0c0 0 0 0 0-.1zm1.6-1.6h.2c.1 0 .2.1.2.1s-.1.1-.2.1-.1 0-.2 0c0-.1 0-.2 0-.2zm.6 1.2c-.1-.1-.4-.4-.4-.6 0-.1-.2-.3-.5-.4.1 0 .1 0 .2-.1.1.1.2.1.3.1.2 0 .4-.1.4-.2s-.2-.2-.4-.2c-.1 0-.2 0-.3.1-.1-.1-.2-.1-.3-.1s-.3 0-.3.1c-.1 0-.2.1-.3.2 0 .1-.1.1-.1.2 0 0-.1.1-.1.2 0 0-.1 0-.1.1v.1.1s-.1.1-.1.1c0 .1.1.1.1.1-.1.1-.1.2-.1.3v.1h-.1c-.1 0-.2 0-.3.1-.1 0-.2-.1-.3-.1s-.2 0-.2.1c-.1 0-.2-.1-.3-.1v.1h.2v.1.1h-.1v.1c.1 0 .2 0 .2-.1.1 0 .2.1.3.1s.2 0 .3-.1c.1 0 .2.1.3.1s.2-.1.3-.1c.1 0 .2-.1.3-.3v-.1h.1s.1.1.2.1c.3.1.5.3.5.3-.8.5-1.7.8-2.7.8s-1.9-.3-2.7-.8c0 0 .1-.3.5-.3.1 0 .2 0 .2-.1h.1v.1c0 .1.1.2.1.3 0 .1.2.2.4.2.1 0 .2 0 .3-.1.1 0 .1.1.2.1v-.1c-.1 0-.1 0-.1 0s0 0 0-.1v-.1h.2v-.1c-.1 0-.2 0-.3.1-.1 0-.1-.1-.2-.1v-.1c0-.1-.1-.2-.1-.3s.1-.1.1-.1 0-.1-.1-.1v-.1-.1s-.1-.1-.1-.1c0-.1 0-.2-.1-.2 0-.1 0-.1-.1-.2s-.2-.2-.3-.2c-.1-.1-.2-.1-.3-.1s-.2 0-.3.1c-.1 0-.2-.1-.3-.1-.2 0-.4.1-.4.2s.2.2.4.2c.1 0 .2 0 .3-.1 0 0 .1 0 .2.1-.3.1-.5.3-.5.4-.1.2-.4.5-.4.6-.5-.5-.9-1-1.2-1.6h4.4.2 4.4c-.3.5-.7 1.1-1.2 1.5m-1.6-.5h.3v.1s0 0-.1 0h-.1c-.1 0-.2 0-.2 0-.1-.1-.1-.1.1-.1-.1 0-.1 0 0 0m.2-.2c.1 0 0 .1 0 0h-.2-.1v-.1h.1.1c0 .1.1.1.1.1zm.1-.2c-.1 0-.1 0-.2 0v-.1c0-.1.1-.1.1-.1 0 .1 0 .1.1.1zm.3.3v.2c0 .1.1.1.1.2v.1.1c-.1-.1-.1-.1-.2-.2.1-.2.1-.3.1-.4-.1.1-.1.2-.2.1-.1 0-.1-.1-.1-.2 0 .1.1.1.1.1.1.1.1 0 .2 0m.2-.5s-.1 0-.2 0-.1 0-.1 0v-.1s0 0 0-.1h.2.2c-.1.1-.1.1-.1.2 0-.1 0 0 0 0m-.8 1.2s0 .1 0 0c0 .2-.1.2-.1.3 0-.1-.1-.1-.1-.1s0 0 0-.1v-.1zm1 .4c-.1-.1-.2-.1-.3-.2s-.2-.1-.3-.1-.3 0-.3-.2h-.1c-.1 0-.3 0-.2-.1.1 0 .1.1.2.1h.2c0-.1 0-.1 0-.1h-.2c-.1 0-.3 0-.2-.1h.1.2.2c0 .1 0 .1.1.2 0 .1.1.2.1.2h.1.1c.1 0 .1.1.2.1 0 0 .1 0 .1.2v-.1s.1 0 0 .1c.1-.1 0-.1 0 0m-4.3-.2c-.1 0-.1 0-.2.1 0 0 0-.1-.1-.2 0 0 0 0 0-.1.1 0 .1 0 .2-.1v.1c.1.1.1.1.1.2 0-.1 0 0 0 0m.3.3s-.1 0-.2 0-.2 0-.2-.1c0 0 .1 0 .1-.1 0 0 0 0 0-.1h.1c.2.1.2.2.2.3 0-.1 0-.1 0 0m-.7-1.5c0-.1 0-.1 0-.1.1 0 .1-.1.1-.1s.1.1.1.1v.1c-.1 0-.2 0-.2 0m.4.2h-.1s-.2 0-.2.1v-.1h.2.1c-.1-.1-.1-.1 0 0 0-.1 0 0 0 0m-.1.2s.1 0 0 0c.2-.1.2 0 .1 0s-.2 0-.2 0h-.1-.1v-.1c.1.2.2.2.3.1m-.6-.1c.1 0 .1.1.2 0 0 0 .1-.1.1-.1 0 .1 0 .2-.1.2-.1.1-.2 0-.2-.1v.3c0 .1-.1.1-.2.2v-.1s0 0 0-.1.1-.1.1-.2c0 0 .1-.1.1-.1m-.2-.6h.2.2v.1.1h-.1c-.1 0-.1 0-.2 0-.1-.1-.1-.2-.1-.2zm-.3 1.7c0-.1 0-.1 0 0 0-.1 0-.1 0-.1v.1c.1-.1.1-.2.2-.2 0 0 .1-.1.2-.1h.1.1c.1 0 .1-.1.1-.2 0 0 0-.1.1-.2h.2.2.1c0 .1-.2.1-.2.1h-.2v.1h.2c.1 0 .1 0 .2-.1.1.1-.1.1-.2.1h-.1c0 .1-.2.2-.3.2s-.2 0-.3.1c-.1 0-.2.1-.4.2.1 0 .1 0 0 0m-2.4-4.8c0-3.1 2.2-5.7 5-5.7v8.3h-4.5c-.3-.9-.5-1.7-.5-2.6m5.3-6h-.1s-.1 0-.1 0c-2.9.1-5.2 2.7-5.2 5.9 0 .9.2 1.8.5 2.5 0 .1.1.1.1.2.9 1.9 2.7 3.2 4.7 3.2 2.1 0 3.9-1.3 4.7-3.2 0-.1.1-.1.1-.2.3-.8.5-1.6.5-2.5 0-3.2-2.3-5.8-5.2-5.9"/><path d="m21.2 14.4c0 .1.1.2.1.2.1.1.4.1.4.1v.3h.1v-.3s.3-.1.3-.2c.1 0 .1-.1.1-.2s-.1-.2-.2-.2-.1.1-.1.2c0 .1-.1.2-.1.2v-.2-.1c0-.2-.1-.3-.2-.3s-.2.1-.2.3v.1.1c-.1 0-.2-.1-.2-.2 0-.1-.1-.2-.2-.2.3.2.2.3.2.4"/><path d="m21.2 14.3c.1-.1 0-.1 0-.1-.1-.1-.1 0 0 .1-.1-.1-.1 0 0 0"/><path d="m21.3 14.2s.1-.1 0 0c.1-.1 0-.1 0-.1 0-.1-.1 0 0 .1-.1-.1 0 0 0 0"/><path d="m21.8 14c.1-.1 0-.1 0-.1-.1 0-.1 0 0 .1-.1-.1-.1 0 0 0"/><path d="m21.9 14c.1 0 .1-.1 0 0 .1-.1 0-.1 0-.1v.1c0-.1 0 0 0 0"/><path d="m22.3 14.2c.1-.1 0-.1 0-.1s-.1 0 0 .1c-.1-.1 0 0 0 0"/><path d="m22.4 14.3c.1 0 .1-.1 0 0 .1-.1 0-.1 0-.1 0-.1 0 0 0 .1 0-.1 0 0 0 0"/><path d="m25.8 19.2c-.1 0-.2-.1-.2-.2 0-.1-.1-.2-.2-.2s-.2.1-.2.2.1.2.1.2c.1.1.4.1.4.1v.3h.3v-.3s.3-.1.3-.2c.1 0 .1-.1.1-.2s-.1-.2-.2-.1c-.1 0-.1.1-.1.2 0 .1-.1.2-.1.2v-.2-.1c0-.2-.1-.3-.2-.3s-.2.1-.2.3v.1z"/><path d="m25.3 18.8c-.1-.1-.1 0-.1 0s0 .1.1 0z"/><path d="m25.4 18.7c-.1-.1-.1 0-.1 0s0 .1.1 0z"/><path d="m25.9 18.6c.1-.1 0-.1 0-.1-.1 0-.1 0 0 .1-.1-.1-.1 0 0 0"/><path d="m26 18.6c.1 0 .1-.1 0 0 .1-.1 0-.1 0-.1v.1c0-.1 0 0 0 0"/><path d="m26.4 18.8c.1-.1 0-.1 0-.1-.1 0-.1 0 0 .1-.1-.1-.1 0 0 0"/><path d="m26.5 18.9c.1 0 .1-.1 0 0 .1-.1 0-.1 0-.1 0-.1 0 0 0 .1 0-.1 0 0 0 0"/><path d="m24.9 25.5c-.1 0-.1.1-.1.2 0 .1-.1.2-.1.2v-.2-.1c0-.2-.1-.3-.2-.3s-.2.1-.2.3v.1.1c-.1 0-.2-.1-.2-.2 0-.1-.1-.2-.2-.2s-.2.1-.2.2.1.2.1.2c.1.1.4.1.4.1v.3h.1v-.3s.3-.1.3-.2c.1 0 .1-.1.1-.2.3.1.2 0 .2 0"/><path d="m23.8 25.5c.1.1.1 0 .1 0s0-.1-.1 0c0-.1 0 0 0 0"/><path d="m23.9 25.4c.1.1.1 0 .1 0s0-.1-.1 0c0-.1 0 0 0 0"/><path d="m24.4 25.2s0 .1 0 0c.1.1.1 0 .1 0s0-.1-.1 0c0-.1 0 0 0 0"/><path d="m24.7 25.2s-.1-.1 0 0c-.1-.1-.1 0-.1 0-.1 0 0 .1.1 0-.1.1 0 0 0 0"/><path d="m25 25.4c-.1-.1-.1 0-.1 0s0 .1.1 0z"/><path d="m25.1 25.4s-.1.1 0 0c-.1.1 0 .1 0 .1s.1 0 0-.1c.1.1 0 0 0 0"/><path d="m21 27.5c-.1 0-.1.1-.1.2 0 .1-.1.2-.1.2v-.2-.1c0-.2-.1-.3-.2-.3s-.2.1-.2.3v.1.1c-.1 0-.2-.1-.2-.2 0-.1-.1-.2-.2-.2s-.2.1-.2.2.1.2.1.2c.1.1.4.1.4.1v.4h.1v-.4s.3-.1.3-.2c.1 0 .1-.1.1-.2.4 0 .3 0 .2 0"/><path d="m20 27.4c-.1 0-.1 0 0 0-.1.1 0 .1 0 .1s0 0 0-.1z"/><path d="m20 27.3c0 .1.1.1 0 0 .1.1.1 0 .1 0 .1 0 0 0-.1 0z"/><path d="m20.5 27.2c.1.1.1 0 .1 0 0-.1 0-.1-.1 0 0-.1 0-.1 0 0"/><path d="m20.7 27.2c.1.1.1 0 .1 0 0-.1 0-.1-.1 0 0-.1 0-.1 0 0"/><path d="m21 27.4c.1.1.1 0 .1 0 0-.1 0-.1-.1 0 0-.1 0-.1 0 0"/><path d="m21.2 27.4c-.1.1 0 .1 0 .1.1 0 .1 0 0-.1.1 0 .1 0 0 0"/><path d="m17.8 26.9c-.1 0-.1.1-.1.2 0 .1-.1.2-.1.2v-.2-.1c0-.2-.1-.3-.2-.3s-.2.1-.2.3v.1.1c-.1 0-.2-.1-.2-.2 0-.1-.1-.2-.2-.2s-.2.1-.2.2.1.2.1.2c.1.1.4.1.4.1v.3h.1v-.3s.3-.1.3-.2c.1 0 .1-.1.1-.2.4 0 .3 0 .2 0"/><path d="m16.8 26.8c-.1 0-.1 0 0 0-.1.1 0 .1 0 .1s0 0 0-.1z"/><path d="m16.8 26.7c0 .1.1.1 0 0 .1.1.1 0 .1 0 .1 0 0 0-.1 0z"/><path d="m17.3 26.6c.1.1.1 0 .1 0 0-.1 0-.1-.1 0 0-.1 0-.1 0 0"/><path d="m17.5 26.6c.1.1.1 0 .1 0 0-.1 0-.1-.1 0 0-.1 0-.1 0 0"/><path d="m17.8 26.7c0 .1.1.1 0 0 .1.1.1 0 .1 0s0 0-.1 0z"/><path d="m18 26.8c-.1.1 0 .1 0 .1.1 0 .1 0 0-.1.1 0 .1 0 0 0"/><path d="m23 19.7c.1 0 .1.1.1.3h.4s.1-.1.1-.1v-.4c-.1 0-.2-.1-.3-.1.1 0 .2-.1.2-.2.1-.1.1-.1.2-.1 0 0 .1 0 .2.1s.1.2.2.2c0 .1-.1.1-.3.1v.4s.1 0 .1.1h.4c0-.1.1-.2.1-.3 0 .1.1.2.2.2.1.1.1.1.1.2 0 0 0 .1-.1.2s-.2.1-.2.2c-.1 0-.1-.1-.1-.3h-.4s0 .1-.1.1v.4c.1 0 .2.1.3.1-.1 0-.2.1-.2.2-.1 0-.2 0-.2 0s-.1 0-.2-.1-.1-.2-.2-.2c0-.1.1-.1.3-.1v-.4s-.1-.1-.1-.1h-.4c0 .1-.1.2-.1.3 0-.1-.1-.2-.2-.2-.1-.1-.1-.1-.1-.2 0 0 0-.1.1-.2.1 0 .2 0 .2-.1m-.5.4c0 .6.5 1.1 1.1 1.1s1.1-.5 1.1-1.1-.5-1.1-1.1-1.1c-.6-.1-1.1.4-1.1 1.1"/><path d="m19.4 22.3c-.1 0-.2 0-.3.1-.1 0-.1.1-.2.1 0-.1 0-.2 0-.2s.1-.6 0-.8-.4-.4-.4-.4-.2-.6-.3-.7c.1-.2 0-1.2 0-1.2s.4-.4.4-.6-.1-.5-.1-.5 0 0-.1 0c0 0 .1 0 .1.1l.2.2c.1 0 .2.1.2.2.1.1.2.2.2.3.1.1 0 .3.1.5v-.1c.1-.2.2-.5.2-.8 0-.1-.1-.2-.2-.3s-.2-.2-.3-.3-.1-.2-.1-.3c-.1-.1-.2-.1-.4-.1-.1 0-.2-.1-.3-.1s-.3.1-.4.1v.1c-.2-.1-.5-.2-.6-.2-.2 0-.1.1-.2.2-.1 0-.2-.1-.4 0s-.5.3-.6.5c.1-.1.2.1.3.1h.4.2c-.1 0-.1.1-.1.1s-.1.9.4 1.1.3.9.2 1c-.3.3-.2 1-.2 1l.2.3.1 1.1s0 .1.1.2c-.1 0-.1-.1-.2-.1s-.2 0-.3-.1c-.2-.1-.4-.2-.6-.1-.1 0-.2.1-.3.1s-.1-.1-.2-.1c0 .1.1.2.2.2l.3.3c.1.1.2.3.4.3.2.1.5 0 .6 0s.3-.3.4-.3c0 0 .1.1.1.1s.1.1.1.1c.3.2.8.2 1.1 0 .1-.1.2-.3.1-.4.4-.6.2-.6.2-.7"/><path d="m16.5 19.9c-.2 0-.4-.3-.4-.3s.3-.1.4-.1.2.1.2.2c-.1.1-.1.2-.2.2m.5 1.1c0-.1.1-.1.1-.2h-.3s-.1 0-.1-.1c0 0 0-.1.1-.1h.3c0-.1-.1-.2-.1-.2s.2 0 .2-.2-.5-.6-.5-.6.2-.7-.4-.9c-.1 0-.4-.1-.7 0-.6.2-.2 1-.2 1s.1.8-.1 1.1h.4s.8.4.9.4c.4.4.4-.1.4-.2"/><path d="m16.5 19.6c-.1 0-.1.1-.1.1 0 .1.1.1.1.1.1 0 .1-.1.1-.1s-.1-.1-.1-.1"/><path d="m28 27.8c-.3.5-.6 1-1.1 1.4-.1.1-.2.1-.3 0-.1-.1-.2-.1-.3 0-1.3 1.2-3.4 2.2-5.9 2.3s0 0-.1 0h-.1c-.1 0-.2 0-.3 0-.1 0-.2 0-.3 0h-.1s0 0-.1 0c-2.4-.1-4.5-1-5.9-2.3-.1-.1-.2-.1-.3 0s-.2.1-.3 0c-.4-.4-.8-.9-1.1-1.4-.1-.1 0-.2.1-.3l.8-.5c.1-.1.2 0 .3.1.2.2.3.4.5.6l.1-.1c1.3 1.5 3.4 2.7 5.8 2.8h.4.4c2.4-.1 4.5-1.3 5.8-2.8l.1.1c.2-.2.3-.4.5-.6.3-.1.4-.1.5-.1l.8.5c.1.1.1.2.1.3m-.9-2.8-.3.3-.1-.3-.4-.2.4-.2v-.4l.3.3.4-.1-.2.4.2.4zm-2.2 3.5-.4-.2-.4.2.1-.4-.3-.3.4-.1.2-.4.2.4.4.1-.3.3zm-8.9 0-.4-.2-.4.2.1-.4-.3-.3.4-.1.2-.4.2.4.4.1-.3.3zm-2.5-3.5-.1.4-.3-.3-.4.1.2-.4-.2-.4.4.1.3-.3v.4l.4.2zm-.4-8.1.2-.4.1.4.4.1-.4.3v.4l-.3-.3-.4.1.1-.4-.3-.3zm2.2-3.5.4.2.4-.2-.1.4.3.3-.4.1-.2.4-.2-.4-.4-.1.3-.3zm4.8-.1c3.8 0 6.9 3.4 6.9 7.7 0 4.2-3.1 7.7-6.9 7.7s-6.9-3.4-6.9-7.7 3.1-7.7 6.9-7.7m3.9.1.4.2.4-.2v.4l.3.3-.4.1-.2.4-.2-.4h-.4l.3-.3zm2.7 3.6.1-.4.2.4h.4l-.3.3.1.4-.2-.2-.3.3v-.4l-.4-.3zm3-4.5c-.3-.1-1.6-.5-6.1-.7-.1.1-.3.2-.4.3s-.1.2-.2.2c-.3.2-.6.3-1 .4h-.1-.1-.1c-.1 0-.1 0-.2 0-.1.1-.1.1-.2.2h-.1c-.1 0-.1 0-.2 0-.1.1-.2.1-.4.1s0 0-.1 0-.3 0-.4-.1c-.1.1-.2.1-.3.1 0 0 0 0-.1 0s-.2 0-.2 0h-.1-.1-.2-.1l-.1-.1s-.1 0-.1-.1h-.1-.1c-.1 0-.2 0-.2 0h-.1-.1-.1-.1-.1c-.1 0-.2-.1-.2-.1-.2 0-.3-.1-.5-.2-.1 0-.2-.1-.4-.1 0 0-.1-.1-.1-.1h-.1-.1c-.1 0-.2-.1-.3-.2-4.4.2-5.7.6-6 .7.6 0 1 1 1 2.1v15.2c0 1.2 1 2.2 2.2 2.2h13c1.2 0 2.2-1 2.2-2.2v-15.5c.1-.9.4-2.1 1.1-2.1"/><path d="m13.8 28.9.4-.3.2.2-.1.1-.1-.2-.1.1.2.1-.1.1-.2-.2v.1l.1.2z"/><path d="m14.2 29.1c.1.1.1.1.1.1v.1h.1s0 0 0-.1c0 0 0-.1-.1-.1v-.1h.1.1.1s.1.1.1.1v.1l-.1-.1s0 0 0-.1 0 0-.1 0v.1s0 .1.1.1v.1.1s0 0-.1 0h-.1s-.1 0-.1-.1c0 0-.1-.1-.1-.1z"/><path d="m14.6 29.6.2-.3-.1-.1.1-.1.2.2v.1l-.1-.1-.2.3z"/><path d="m15.1 29.7v-.2l-.1.1zm0 .2-.1-.2-.2-.1-.1.1-.1-.1.4-.3.1.1z"/><path d="m15.5 29.7-.2.3h.1.1s0 0 .1-.1v-.1s0 0 0-.1c0 .1 0 .1-.1 0zm-.1-.1.1.1s.1 0 .1.1v.1.1.1s0 .1-.1.1h-.1s0 0-.1 0c0 0 0 0-.1 0v-.2z"/><path d="m15.8 30v.1s0 .1.1.1h.1s.1 0 .1-.1v-.1s0-.1-.1-.1-.1 0-.2.1zm-.1 0c.1-.1.1-.1.1-.1h.1.1c.1 0 .1.1.1.1v.2c0 .1-.1.1-.1.1-.1 0-.1 0-.2 0s-.1-.1-.1-.1c0-.1 0-.1 0-.2"/><path d="m16.2 30.5.2-.4h.1l-.1.4.2.1h-.1z"/><path d="m16.6 30.7h.1l.2-.4-.1-.1z"/><path d="m17 30.4v.1h.1.1c-.1-.1-.1-.1-.2-.1zm-.1.2v.1h.1.1c0-.1 0-.1-.2-.1zm0-.3.2.1h.1v.1.1s0 0-.1 0v.1.1.1s0 0-.1 0c0 0 0 0-.1 0h-.1-.1z"/><path d="m17.4 30.6h.1c.1 0 0 0-.1 0v-.1zm-.1.3.1-.4h.2.1v.1.1s0 .1-.1.1h-.1v.1.1.1h-.1v-.1-.1z"/><path d="m17.7 31 .1-.5.3.1v.1l-.2-.1v.1l.2.1v.1l-.3-.1v.1l.3.1v.1z"/><path d="m18.4 31.1.1-.2-.2-.3.1.1.1.2.2-.2h.1l-.2.2-.1.2z"/><path d="m18.9 31c.1 0 .1.1.1.1h.1.1s0 0-.1 0c-.1-.1-.1-.1-.2-.1 0-.1 0-.2 0-.2s0 0 0-.1h.1.1.1v.1h-.1s0 0 0-.1c0 0 0 0-.1 0 0 0 0 0-.1 0h.1.1v.1.1.1s0 0-.1 0h-.1c-.1 0-.1 0-.1-.1.1.2.1.2.1.1"/><path d="m19.4 31v.1h.1.1v-.1c0-.1 0-.1 0-.1h-.1-.1c.1 0 0 0 0 .1m0 0v-.1s0 0 0-.1h.1.1c.1 0 .1 0 .2.1 0 0 .1.1.1.2s0 .1-.1.2c0 0-.1.1-.2.1s-.1 0-.2-.1c0-.2-.1-.2 0-.3"/><path d="m20 31v.1h.1.1c-.1-.1-.1-.1-.2-.1zm0-.2v.1h.1.1c-.1-.1-.1-.1-.2-.1zm-.1 0h.2.1v.1.1h.1v.1.1s0 0-.1 0h-.1-.2z"/><path d="m20.4 31.2-.1-.4.4-.1v.1h-.3v.1h.3v.1h-.3v.1h.3v.1z"/><path d="m20.9 30.9h.2s0 0-.1 0zm-.1.3v-.5h.2.1.1v.1.1s0 0-.1.1h.1s0 0 .1.1l.1.1h-.1l-.3-.1s0-.1-.1-.1z"/><path d="m21.5 30.9-.1-.2v.2zm.2.2-.2-.1h-.2v.1h-.1l.1-.5h.1z"/><path d="m21.7 31.1-.1-.5h.1l.3.3-.1-.3.1-.1.1.5h-.1l-.2-.2v.2z"/><path d="m22.2 30.7c0 .1 0 .1.1.1h.1s.1 0 .1-.1v-.1c0-.1 0-.1-.1-.1h-.1s-.1 0-.1.1zm-.1 0v-.1s0 0 0-.1c0 0 0 0 0-.1h.1.2c.1 0 .1.1.1.2v.2c0 .1-.1.1-.1.1-.1 0-.1 0-.2 0 0 0-.1-.1-.1-.2"/><path d="m22.8 30.4.1.3h.1.1s0 0 0-.1v-.1c-.2-.1-.2-.1-.3-.1zm-.1-.1.2-.1h.1.1s0 0 .1.1v.1.1.1.1s0 0-.1 0l-.2.1z"/><path d="m23.3 30.6-.1-.4.3-.1-.2.1v.1l.2-.1.1.1-.3.1.1.1.2-.1.1.1z"/><path d="m23.9 30.1c0 .1 0 .1 0 0 .1.1.2.1.2.1s.1 0 .1-.1v-.1s-.1-.1-.1-.1h-.1s-.1 0-.1.1c-.1.1 0 .1 0 .1m-.1.1v-.1-.1s0 0 0-.1c0 0 0 0 .1-.1h.2c.1 0 .1.1.1.1v.2c0 .1-.1.1-.1.1-.1 0-.1 0-.2 0 0 .1-.1 0-.1 0"/><path d="m24.5 29.9-.1-.1v.2zm.2 0h-.2l-.1.1v.1h-.1l-.1-.5h.1z"/><path d="m24.7 29.9v-.3l-.2-.1h.1l.2.1v-.2-.1.3l.3.1-.1.1-.2-.1v.2z"/><path d="m25.2 29.4-.2-.1v.2zm.3 0h-.2l-.1.1v.1l-.1.1-.1-.5.1-.1z"/><path d="m25.7 29.1c.1 0 .1.1.1.1s0 .1-.1.1c0 0-.1.1-.2 0-.1 0-.1 0-.2-.1 0-.1-.1-.1-.1-.2s0-.1.1-.1c0 0 .1-.1.1 0h.1l.1.1s0 0-.1 0c0 0 0 0-.1 0v.1s0 .1.1.1c0 0 .1.1.1.1h.1c0-.1 0-.1 0-.2z"/><path d="m26 28.8-.2-.1zm.2 0h-.2l-.1.1v.1l-.1.1-.2-.5.1-.1z"/><path d="m14.1 38.2c.2.1.3.2.3.4v.2c0 .2 0 .4-.3.5l-.7.4c-.2.1-.2.2-.2.3v.1h1.1v.2h-1.3s-.1 0-.1-.1v-.2c0-.1 0-.2.1-.3s.1-.2.3-.2l.7-.4c.1 0 .1-.1.1-.3v-.2c0-.2-.2-.3-.5-.3h-.5v-.2h.6c.1 0 .2 0 .4.1z"/><path d="m16.3 39.2c0 .4-.1.7-.2.9s-.3.2-.6.2-.5-.1-.6-.2c-.1-.2-.2-.4-.2-.9 0-.4 0-.7.2-.9.1-.2.3-.2.6-.2.6 0 .8.3.8 1.1zm-1.2.7c.1.1.2.2.4.2s.3-.1.4-.2.1-.3.1-.7c0-.3 0-.6-.1-.7s-.2-.2-.4-.2-.3.1-.4.2c-.1.2-.1.4-.1.7 0 .4 0 .6.1.7z"/><path d="m17.2 40.1h.4v.2h-1v-.2h.4v-1.5c0-.1-.1-.2-.3-.2h-.2v-.1h.2.3c.1 0 .2.1.2.3z"/><path d="m18.7 38.1-.4.9h.3c.5 0 .8.2.8.6v.1c0 .5-.2.6-.8.6-.5 0-.8-.2-.8-.6v-.1c0-.1 0-.3.1-.4l.6-1.1h.1zm-.7 1.6c0 .3.1.4.5.4.3 0 .5-.1.5-.4 0-.3-.1-.4-.5-.4-.3 0-.5.1-.5.4z"/><path d="m20.3 39.4c.1 0 .1 0 0 0v.2h-.8v-.2z"/><path d="m21.7 38.2c.2.1.3.2.3.4v.2c0 .2 0 .4-.3.5l-.7.4c-.2.1-.2.2-.2.3v.1h1.2v.2h-1.4s-.1 0-.1-.1v-.2c0-.1 0-.2.1-.3s.1-.2.3-.2l.7-.4c.1 0 .1-.1.1-.3v-.2c0-.2-.2-.3-.5-.3h-.5v-.2h.6c.1 0 .2 0 .4.1z"/><path d="m23.8 39.2c0 .4-.1.7-.2.9s-.3.2-.6.2-.5-.1-.6-.2c-.1-.2-.2-.4-.2-.9 0-.4 0-.7.2-.9.1-.2.3-.2.6-.2.7 0 .8.3.8 1.1zm-1.2.7c.1.1.2.2.4.2s.3-.1.4-.2.1-.3.1-.7c0-.3 0-.6-.1-.7s-.2-.2-.4-.2-.3.1-.4.2-.1.3-.1.7.1.6.1.7z"/><path d="m25.2 38.2c.2.1.3.2.3.4v.2c0 .2 0 .4-.3.5l-.7.4c-.2.1-.2.2-.2.3v.1h1.1v.2h-1.4s-.1 0-.1-.1v-.2c0-.1 0-.2.1-.3s.1-.2.3-.2l.7-.4c.1 0 .1-.1.1-.3v-.2c0-.2-.2-.3-.5-.3h-.5v-.2h.6c.2 0 .4 0 .5.1z"/><path d="m26.9 38.2c.2.1.3.2.3.4v.2c0 .2 0 .4-.3.5l-.7.4c-.1.1-.2.1-.2.3v.1h1.1v.2h-1.4s-.1 0-.1-.1v-.2c0-.1 0-.2.1-.3s.1-.2.3-.2l.7-.4c.1 0 .1-.1.1-.3v-.2c0-.2-.2-.3-.5-.3h-.5v-.2h.6c.2 0 .3 0 .5.1z"/><path d="m60.3 10.1c.4.1.6.3.6.7v2.2c0 .2-.1.3-.3.3h-4.4c-1 0-1.7.3-2 .9s-.5 1.7-.5 3.4.2 2.9.5 3.5 1 .9 2 .9h4.4c.2 0 .3.1.3.3v2.2c0 .4-.2.6-.6.7-1 .3-2.4.4-4.1.4-2.6 0-4.4-.6-5.4-1.7-.9-1.1-1.4-3.2-1.4-6.4s.3-5 1.4-6.3 2.6-1.7 5.4-1.7c1.7.2 3.1.3 4.1.6z"/><path d="m72.6 10.1c.4.1.6.3.6.7v2.2c0 .2-.1.3-.3.3h-4.4c-1 0-1.7.3-2 .9-.4.6-.5 1.8-.5 3.5s.2 2.9.5 3.5 1 .9 2 .9h4.4c.2 0 .3.1.3.3v2.2c0 .4-.2.6-.6.7-1 .3-2.4.4-4.1.4-2.6 0-4.4-.6-5.4-1.7-.9-1.1-1.4-3.2-1.4-6.4s.3-5 1.4-6.3 2.6-1.7 5.4-1.7c1.6.1 3 .2 4.1.5z"/><path d="m80.4 25.7c-5.4-.1-6.7-1.7-6.8-8 0-3.2.4-5.1 1.4-6.3 1.1-1.3 2.7-1.7 5.4-1.7s4.3.4 5.4 1.7 1.4 3.2 1.4 6.3c0 6.3-1.3 7.9-6.8 8zm-2-4.6c.3.6 1 .9 2.1.9s1.7-.3 2.1-.9c.3-.6.5-1.8.5-3.4 0-1.7-.2-2.8-.5-3.4s-1-.9-2.1-.9-1.7.3-2.1.9c-.3.6-.5 1.8-.5 3.4 0 1.7.1 2.8.5 3.4z"/><path d="m48.5 29.8c.1 0 .1.1 0 0l.1.4c0 .1 0 .1-.1.1h-1.1c-.5 0-.8.1-1 .3-.1.2-.2.7-.2 1.4s.1 1.1.2 1.4c.1.2.5.3 1 .3h1.1c.1 0 .1 0 .1.1v.3c0 .1 0 .1-.1.1-.3 0-.6.1-1.1.1-.7 0-1.1-.1-1.4-.5s-.4-.9-.4-1.8.1-1.4.4-1.8.7-.5 1.4-.5c.5.1.8.1 1.1.1z"/><path d="m51.6 31.9v2c0 .1 0 .1-.1.2-.2.1-.7.1-1.3.1-.4 0-.7-.1-.9-.2s-.3-.4-.3-.8c0-.7.3-.9 1-.9h.9v-.3c0-.4-.2-.5-.8-.5h-.9c-.1 0-.1 0-.1-.1v-.2c0-.1 0-.1.1-.1.3 0 .6-.1.9-.1 1 0 1.5.3 1.5.9zm-.6 1h-.9c-.3 0-.5.1-.5.4 0 .4.2.5.7.5.3 0 .6 0 .7-.1z"/><path d="m54.3 31c.1.1.1.1 0 0l.1.3c0 .1 0 .1-.1.1h-1.1c-.3 0-.4.1-.4.3v.1c0 .2.1.3.4.4l.8.3c.5.2.6.4.6.8v.1c0 .3-.1.5-.3.6s-.5.2-.9.2-.8 0-1.1-.1c-.1 0-.1 0-.1-.1v-.3c0-.1 0-.1.1-.1h1.1c.5 0 .6-.1.6-.3v-.1c0-.2-.1-.3-.3-.4l-.8-.3c-.4-.1-.6-.4-.6-.8v-.1c0-.3.1-.5.4-.6.2-.1.5-.1.8-.1.2.1.5.1.8.1z"/><path d="m57.5 31.9v2c0 .1 0 .1-.1.2-.2.1-.7.1-1.3.1-.4 0-.7-.1-.9-.2s-.2-.3-.2-.7c0-.7.3-.9 1-.9h.9v-.4c0-.4-.2-.5-.8-.5h-.9c-.1 0-.1 0-.1-.1v-.2c0-.1 0-.1.1-.1.3 0 .6-.1.9-.1 1 0 1.4.3 1.4.9zm-.6 1h-.9c-.3 0-.5.1-.5.4 0 .4.2.5.7.5.3 0 .6 0 .7-.1z"/><path d="m62.1 29.8.1 4.2c0 .1 0 .1-.1.1-.4.1-.8.1-1.2.1-.5 0-.8-.1-1-.2-.3-.2-.4-.6-.4-1.4 0-.7.1-1.1.3-1.3s.5-.3 1.1-.3h.8v-1.1c0-.1 0-.1.1-.1zm-.5 1.7h-.7c-.3 0-.6.1-.7.2s-.1.4-.1.9 0 .8.1.9.3.2.7.2h.7z"/><path d="m65.2 31.3c.2.2.3.6.3 1.2v.2c0 .1 0 .2-.2.2h-1.9c0 .4.1.6.2.7s.3.2.6.2h1c.1 0 .1 0 .1.1v.3c0 .1 0 .1-.1.1-.3 0-.6.1-1 .1-.5 0-.9-.1-1.1-.3s-.3-.6-.3-1.3.1-1.1.3-1.3.5-.3 1.1-.3c.5-.2.8-.1 1 .1zm-1.6.4c-.1.1-.2.4-.2.7h1.5c0-.4-.1-.6-.2-.7s-.3-.2-.6-.2c-.2 0-.4 0-.5.2z"/><path d="m67.9 29.8c.1 0 .1 0 0 0l.1 4.3c0 .1 0 .1-.1.1h-.4c-.1 0-.1 0-.1-.1v-4.2c0-.1 0-.1.1-.1z"/><path d="m71.1 31.9v2c0 .1 0 .1-.1.2-.2.1-.7.1-1.3.1-.4 0-.7-.1-.9-.2s-.3-.4-.3-.8c0-.7.3-.9 1-.9h.9v-.3c0-.4-.2-.5-.8-.5h-.9c-.1 0-.1 0-.1-.1v-.2c0-.1 0-.1.1-.1.3 0 .6-.1.9-.1 1.1 0 1.5.3 1.5.9zm-.5 1h-.9c-.3 0-.5.1-.5.4 0 .4.2.5.7.5.3 0 .6 0 .7-.1z"/><path d="m76 29.8c.1 0 .1.1 0 0l.1.4c0 .1 0 .1-.1.1h-1.1c-.5 0-.8.1-1 .3-.1.2-.2.7-.2 1.4s.1 1.1.2 1.4c.1.2.5.3 1 .3h1.1c.1 0 .1 0 .1.1v.3c0 .1 0 .1-.1.1-.3 0-.6.1-1.1.1-.7 0-1.1-.1-1.4-.5s-.4-.9-.4-1.8.1-1.4.4-1.8.7-.5 1.4-.5c.5.1.8.1 1.1.1z"/><path d="m79.1 31c.1 0 .1.1 0 0l.1 3c0 .1 0 .1-.1.1-.3.1-.7.1-1.2.1-.3 0-.5 0-.7 0s-.3-.1-.4-.2c-.2-.2-.3-.5-.3-1.1v-1.8c0-.1 0-.1.1-.1h.4c.1 0 .1 0 .1.1v1.7c0 .4 0 .7.2.8.1.1.3.1.6.1h.8v-2.6c0-.1 0-.1.1-.1z"/><path d="m80.5 29.8c.1 0 .1 0 0 0l.1 4.3c0 .1 0 .1-.1.1h-.4c-.1 0-.1 0-.1-.1v-4.2c0-.1 0-.1.1-.1z"/><path d="m82 30.1c.1 0 .1 0 0 0l.1.9h.6c.1 0 .1 0 .1.1v.3c0 .1 0 .1-.1.1h-.6v2c0 .3.1.3.4.3h.3c.1 0 .1 0 .1.1v.3c0 .1 0 .1-.1.1s-.2 0-.3 0c-.2 0-.3 0-.5 0-.3-.1-.4-.2-.4-.6v-2.1h-.3c-.1 0-.1 0-.1-.1v-.3c0-.1 0-.1.1-.1h.3v-.7c0-.1 0-.1.1-.1z"/><path d="m85.9 31c.1 0 .1.1 0 0l.1 3c0 .1 0 .1-.1.1-.3.1-.7.1-1.2.1-.3 0-.5 0-.7 0s-.3-.1-.4-.2c-.2-.2-.3-.5-.3-1.1v-1.8c0-.1 0-.1.1-.1h.4c.1 0 .1 0 .1.1v1.7c0 .4 0 .7.2.8.1.1.3.1.6.1h.8v-2.6c0-.1 0-.1.1-.1z"/><path d="m88.4 31.1s.1 0 0 0l.1.3c0 .1 0 .1-.1.1h-.5c-.4 0-.5.1-.5.3v2.3c0 .1 0 .1-.1.1h-.4c-.1 0-.1 0-.1-.1v-2.4c0-.3.1-.4.2-.5.1 0 .1-.1.2-.1.2-.1.3-.1.5-.1.3 0 .6 0 .7.1z"/><path d="m91.1 31.9v2c0 .1 0 .1-.1.2-.2.1-.7.1-1.3.1-.4 0-.7-.1-.9-.2s-.3-.4-.3-.8c0-.7.3-.9 1-.9h.9v-.3c0-.4-.2-.5-.8-.5h-.9c-.1 0-.1 0-.1-.1v-.2c0-.1 0-.1.1-.1.3 0 .6-.1.9-.1 1.1 0 1.5.3 1.5.9zm-.5 1h-.9c-.3 0-.5.1-.5.4 0 .4.2.5.7.5.3 0 .6 0 .7-.1z"/><path d="m57 40.7c-.3.4-.7.5-1.4.5s-1.1-.1-1.4-.5-.4-.9-.4-1.8.1-1.5.4-1.8c.2-.3.7-.5 1.4-.5s1.2.2 1.4.5.4.9.4 1.8c-.1.9-.1 1.4-.4 1.8zm-2.4-.4c.1.2.5.3 1 .3s.8-.1 1-.3c.1-.2.2-.7.2-1.4s0-1.1-.2-1.4-.5-.4-1-.4-.8.1-1 .4-.2.7-.2 1.4.1 1.1.2 1.4z"/><path d="m60.4 38.8v2c0 .1 0 .1-.1.2-.2.1-.7.1-1.3.1-.4 0-.7-.1-.9-.2s-.3-.4-.3-.8c0-.7.3-.9 1-.9h.9v-.4c0-.4-.2-.5-.8-.5h-.9c-.1 0-.1 0-.1-.1v-.2c0-.1 0-.1.1-.1.3 0 .6-.1.9-.1 1.1.1 1.5.4 1.5 1zm-.6.9h-.9c-.3 0-.5.1-.5.4 0 .4.2.5.7.5.3 0 .6 0 .7-.1z"/><path d="m63.6 37.9c.1 0 .1.1 0 .1l-1 1.4 1.1 1.6v.1h-.5s-.1 0-.1-.1l-.8-1.2-.8 1.2s0 .1-.1.1h-.5c-.1 0-.1 0-.1-.1l1.1-1.6-.9-1.4c0-.1 0-.1 0-.1h.5s.1 0 .1.1l.7 1 .7-1s.1-.1.1-.1z"/><path d="m66.5 38.8v2c0 .1 0 .1-.1.2-.2.1-.7.1-1.3.1-.4 0-.7-.1-.9-.2s-.3-.4-.3-.8c0-.7.3-.9 1-.9h.9v-.4c0-.4-.2-.5-.8-.5h-.9c-.1 0-.1 0-.1-.1v-.2c0-.1 0-.1.1-.1.3 0 .6-.1.9-.1 1.1.1 1.5.4 1.5 1zm-.5.9h-1c-.3 0-.5.1-.5.4 0 .4.2.5.7.5.3 0 .6 0 .7-.1v-.8z"/><path d="m69.8 38s.1 0 0 0l.1 4.2c0 .1 0 .1-.1.1h-.4c-.1 0-.1 0-.1-.1v-1.1c-.2 0-.4 0-.8 0-.5 0-.9-.1-1.1-.3s-.3-.7-.3-1.3c0-.7.1-1.1.3-1.3s.5-.3 1.1-.3c.5 0 .9 0 1.3.1zm-.5.4h-.7c-.3 0-.6.1-.7.2s-.1.4-.1.9 0 .8.1.9.3.2.7.2h.7z"/><path d="m73.2 37.9c.1 0 .1 0 0 0l.1 3c0 .1 0 .1-.1.1-.3.1-.7.1-1.2.1-.3 0-.5 0-.7 0s-.3-.1-.4-.2c-.2-.2-.3-.5-.3-1.1v-1.8c0-.1 0-.1.1-.1h.4c.1 0 .1 0 .1.1v1.7c0 .4 0 .7.2.8.1.1.3.1.6.1h.8v-2.6c0-.1 0-.1.1-.1z"/><path d="m76.4 38.2c.2.2.3.6.3 1.2v.2c0 .1 0 .2-.2.2h-1.9c0 .4.1.6.2.7s.3.2.6.2h1c.1 0 .1 0 .1.1v.2c0 .1 0 .1-.1.1-.3 0-.6.1-1 .1-.5 0-.9-.1-1.1-.3s-.3-.6-.3-1.3.1-1.1.3-1.3.5-.3 1.1-.3c.4-.1.8 0 1 .2zm-1.7.4c-.1.1-.2.4-.2.7h1.5c0-.4-.1-.6-.2-.7s-.3-.2-.6-.2c-.2 0-.4 0-.5.2z"/><path d="m79.2 37.9c.2 0 .3.1.4.2.2.2.3.5.3 1.1v1.8c0 .1 0 .1-.1.1h-.4c-.1 0-.1 0-.1-.1v-1.7c0-.4 0-.6-.1-.7 0-.1-.1-.1-.1-.1-.1-.1-.2-.1-.5-.1h-.8v2.6c0 .1 0 .1-.1.1h-.4c-.1 0-.1 0-.1-.1v-2.9c0-.1 0-.1.1-.1.3-.1.7-.1 1.2-.1zm-.6-1c.2.1.3.1.4.1s.2 0 .3-.2c0-.1.1-.1.1-.1h.1c.1 0 .1.1.1.1-.1.4-.3.6-.5.6-.1 0-.2 0-.4-.1s-.3-.1-.4-.1-.2 0-.3.2c0 .1-.1.1-.1.1h-.1c-.1 0-.1-.1-.1-.1.1-.4.2-.6.5-.6.1 0 .2 0 .4.1z"/><path d="m83 38.8v2c0 .1 0 .1-.1.2-.2.1-.7.1-1.3.1-.4 0-.7-.1-.9-.2s-.3-.4-.3-.8c0-.7.3-.9 1-.9h.9v-.4c0-.4-.2-.5-.8-.5h-.9c-.1 0-.1 0-.1-.1v-.2c0-.1 0-.1.1-.1.3 0 .6-.1.9-.1 1.1.1 1.5.4 1.5 1zm-.5.9h-.9c-.3 0-.5.1-.5.4 0 .4.2.5.7.5.3 0 .6 0 .7-.1z"/></g></svg>