<svg enable-background="new 0 0 16 16" viewBox="0 0 16 16" xmlns="http://www.w3.org/2000/svg"><path d="m8.5 16c-.3 0-.6 0-.9 0h-.1c-1.1-.1-2.2-.4-3.2-.9-2.3-1.3-3.7-3.2-4.2-5.7 0-.3-.1-.6-.1-.9s0-.6 0-.9v-.1c.1-1.1.4-2.2.9-3.2 1.5-2.6 3.7-4 6.7-4.2 1.4-.1 2.8.2 4.1.9 2.6 1.5 4.1 3.7 4.2 6.7.1 1.4-.2 2.8-.9 4.1-1.2 2.3-3.1 3.6-5.7 4.1-.2 0-.5.1-.8.1zm5.4-9.3c0-.2-.1-.5-.4-.6-.2-.1-.3-.2-.5-.3-1.8-.9-3.7-1.3-5.8-1.3-1 0-2 .1-3 .2-.4.1-.9.2-1.3.3s-.6.6-.5 1 .5.6.9.6c.3-.1.6-.1 1-.2 1.3-.3 2.7-.4 4.1-.2 1.2.1 2.3.4 3.4.8.4.2.7.4 1.1.5.4.2 1-.1 1-.8zm-7 .6c-.3 0-.6 0-.8 0-.8 0-1.6.2-2.4.4-.4.1-.6.4-.5.8.1.3.4.5.8.5 1.3-.3 2.7-.4 4-.3.8.1 1.6.2 2.4.5l1.2.6c.4.2.7.1.9-.3.2-.3.1-.7-.3-.9-.2-.1-.5-.3-.7-.4-1.4-.6-3-.9-4.6-.9zm4.1 4.6c.2 0 .5-.2.5-.4.1-.2 0-.5-.2-.6s-.5-.3-.7-.4c-.8-.4-1.7-.6-2.6-.7-1.3-.1-2.6 0-3.9.3-.1 0-.2.1-.3.1-.2.2-.2.4-.1.7.1.2.4.3.7.3.6-.2 1.3-.3 2-.3 1.5 0 3 .2 4.3.9.1 0 .2.1.3.1z" fill="#4e4e4d"/><g fill="#fff"><path d="m13.9 6.7c0 .7-.6 1-1.1.8-.4-.2-.7-.4-1.1-.5-1.1-.5-2.2-.7-3.4-.8-1.3-.2-2.7-.1-4.1.1-.3.1-.6.1-1 .2-.3.1-.7-.1-.8-.5s.1-.9.5-1c.5-.1.9-.2 1.4-.3 1-.2 2-.2 3-.2 2 0 3.9.4 5.8 1.3.2.1.3.2.5.3s.3.4.3.6z"/><path d="m6.9 7.3c1.6 0 3.1.2 4.6.9.2.1.5.2.7.4.3.2.5.6.3.9s-.5.4-.9.3c-.4-.2-.8-.4-1.2-.6-.8-.3-1.6-.5-2.4-.5-1.3-.2-2.7 0-4 .3-.4 0-.7-.2-.8-.5-.1-.4.1-.7.5-.8.8-.2 1.6-.3 2.4-.4z"/><path d="m11 11.9c-.1 0-.2 0-.3-.1-1.3-.8-2.8-1-4.3-.9-.7 0-1.4.1-2.1.3-.3.1-.5 0-.7-.3-.1-.2-.1-.5.1-.7.2 0 .3-.1.3-.1 1.3-.3 2.6-.4 3.9-.3.9.1 1.8.3 2.6.7.2.1.5.2.7.4.2.1.3.4.2.6.1.2-.2.4-.4.4z"/></g></svg>