<svg enable-background="new 0 0 16 16" viewBox="0 0 16 16" xmlns="http://www.w3.org/2000/svg"><path d="m7.5.1h.9.1c1.1.1 2.2.4 3.2.9 2.3 1.2 3.6 3.1 4.1 5.7.1.3.2.6.2.9v.9.2c0 .6-.2 1.2-.4 1.8-.9 2.7-2.8 4.5-5.6 5.3-.2.1-.5.1-.7.2 0-.1 0-.1 0-.1.1-.8.3-1.6.4-2.4s.2-1.5.1-2.3c0-.5-.2-.8-.7-1-.7-.3-1.4-.3-2.1-.1s-.9.6-.9 1.3c0 1.2.2 2.3.4 3.4.1.4.1.8.2 1.1 0 0 0 0-.1 0-.9-.1-1.7-.4-2.5-.8-2.6-1.5-4-3.7-4.2-6.7-.1-1.4.2-2.8.9-4.1 1.4-2.3 3.3-3.6 5.8-4.1.3-.1.6-.1.9-.1zm2.9 14.9c3.2-1.1 5.5-4.5 4.8-8.2-.7-3.5-3.9-6.2-7.8-5.8-3.6.2-6.5 3.1-6.6 6.8-.2 3.7 2.4 6.4 5 7.2-.1-.3-.1-.6-.1-.9 0-.1-.1-.2-.2-.2-.5-.2-1-.5-1.4-.9-1.7-1.5-2.5-3.4-2.2-5.7 0-1.2.5-2.3 1.3-3.2 1.4-1.6 3.2-2.4 5.4-2.3 1.2.2 2.4.6 3.4 1.5 1.8 1.6 2.6 3.5 2.2 5.9-.2 1.2-.7 2.3-1.6 3.2-.6.6-1.2 1.1-1.9 1.4 0 0-.1.1-.1.1-.1.3-.2.7-.2 1.1zm-5-2.9c0-.4 0-.8 0-1.1 0 0 0-.1-.1-.1-.1-.2-.3-.3-.4-.5-.9-1.4-1-2.7-.3-4 .6-1.3 1.7-1.9 3.1-2.1 1-.1 1.9.2 2.7.8 1.2 1 1.7 2.3 1.4 3.9-.1.7-.5 1.3-.9 1.8 0 0-.1.1-.1.2v1 .1c1.6-1.1 2.5-3.3 1.8-5.3-.7-2.1-2.7-3.5-4.9-3.3-2.1.1-4 1.8-4.4 4.1-.3 1.7.6 3.6 2.1 4.5zm4.3-4.6c0-1-.8-1.7-1.7-1.7s-1.7.8-1.7 1.7c0 1 .8 1.7 1.7 1.7s1.7-.7 1.7-1.7z" fill="#4e4e4d"/></svg>