<svg enable-background="new 0 0 750 500" viewBox="0 0 750 500" xmlns="http://www.w3.org/2000/svg" xmlns:xlink="http://www.w3.org/1999/xlink"><pattern id="a" height="28.8" overflow="visible" patternUnits="userSpaceOnUse" viewBox="1.44 -30.24 28.8 28.8" width="28.8" x="77.36" y="-170.95"><path d="m1.44-30.24h28.8v28.8h-28.8z" fill="none"/><path d="m30.24 0c.8 0 1.44-.64 1.44-1.44 0-.79-.64-1.44-1.44-1.44s-1.44.64-1.44 1.44.64 1.44 1.44 1.44z" fill="#20191b"/><path d="m15.84 0c.8 0 1.44-.64 1.44-1.44 0-.79-.65-1.44-1.44-1.44-.8 0-1.44.64-1.44 1.44s.64 1.44 1.44 1.44z" fill="#20191b"/><path d="m30.24-14.4c.8 0 1.44-.65 1.44-1.44 0-.8-.64-1.44-1.44-1.44s-1.44.64-1.44 1.44.64 1.44 1.44 1.44z" fill="#20191b"/><path d="m15.84-14.4c.8 0 1.44-.65 1.44-1.44 0-.8-.65-1.44-1.44-1.44-.8 0-1.44.64-1.44 1.44s.64 1.44 1.44 1.44z" fill="#20191b"/><path d="m8.64-7.2c.79 0 1.44-.64 1.44-1.44s-.65-1.44-1.44-1.44c-.8 0-1.44.64-1.44 1.44s.64 1.44 1.44 1.44z" fill="#20191b"/><path d="m23.04-7.2c.79 0 1.44-.64 1.44-1.44s-.65-1.44-1.44-1.44c-.8 0-1.44.64-1.44 1.44s.64 1.44 1.44 1.44z" fill="#20191b"/><path d="m8.64-21.6c.79 0 1.44-.64 1.44-1.44s-.65-1.44-1.44-1.44c-.8 0-1.44.64-1.44 1.44s.64 1.44 1.44 1.44z" fill="#20191b"/><path d="m23.04-21.6c.79 0 1.44-.64 1.44-1.44s-.65-1.44-1.44-1.44c-.8 0-1.44.64-1.44 1.44s.64 1.44 1.44 1.44z" fill="#20191b"/><path d="m1.44 0c.79 0 1.44-.64 1.44-1.44 0-.79-.64-1.44-1.44-1.44s-1.44.65-1.44 1.44c0 .8.64 1.44 1.44 1.44z" fill="#20191b"/><path d="m1.44-14.4c.79 0 1.44-.65 1.44-1.44 0-.8-.64-1.44-1.44-1.44s-1.44.64-1.44 1.44.64 1.44 1.44 1.44z" fill="#20191b"/><path d="m30.24-28.8c.8 0 1.44-.64 1.44-1.44s-.64-1.44-1.44-1.44-1.44.64-1.44 1.44c0 .79.64 1.44 1.44 1.44z" fill="#20191b"/><path d="m15.84-28.8c.8 0 1.44-.64 1.44-1.44s-.65-1.44-1.44-1.44c-.8 0-1.44.64-1.44 1.44 0 .79.64 1.44 1.44 1.44z" fill="#20191b"/><path d="m1.44-28.8c.79 0 1.44-.64 1.44-1.44s-.64-1.44-1.44-1.44-1.44.64-1.44 1.44c0 .79.64 1.44 1.44 1.44z" fill="#20191b"/></pattern><clipPath id="b"><path d="m0 0h750v500h-750z"/></clipPath><linearGradient id="c"><stop offset=".0756" stop-color="#13e4d4"/><stop offset="1" stop-color="#13e4d4" stop-opacity="0"/></linearGradient><linearGradient id="d" gradientUnits="userSpaceOnUse" x1="640.6693" x2="548.6693" xlink:href="#c" y1="-2.4284" y2="145.5716"/><linearGradient id="e"><stop offset=".1002" stop-color="#d93efc"/><stop offset="1" stop-color="#d93efc" stop-opacity="0"/></linearGradient><linearGradient id="f" gradientUnits="userSpaceOnUse" x1="518.5332" x2="820.5332" xlink:href="#e" y1="425.1562" y2="216.4895"/><linearGradient id="g" gradientUnits="userSpaceOnUse" x1="76.3245" x2="201.621" xlink:href="#e" y1="129.5105" y2="42.9369"/><linearGradient id="h" gradientUnits="userSpaceOnUse" x1="88.035" x2="10.035" xlink:href="#c" y1="366.0641" y2="486.7307"/><linearGradient id="i" gradientTransform="matrix(0 -1 1 0 287.6558 807.7334)" gradientUnits="userSpaceOnUse" x1="557.7334" x2="557.7334" y1="-350.8692" y2="15.4635"><stop offset="0" stop-color="#fff"/><stop offset="1" stop-color="#bfc2c0"/></linearGradient><pattern id="j" patternTransform="matrix(1.0407 0 0 .9765 307.9484 -193.0737)" xlink:href="#a"/><pattern id="k" patternTransform="matrix(1.0407 0 0 .9765 307.9484 -193.0737)" xlink:href="#a"/><circle clip-path="url(#b)" cx="581.54" cy="92.69" fill="url(#d)" r="107.23"/><circle clip-path="url(#b)" cx="591.67" cy="374.62" fill="url(#f)" r="162.12"/><circle clip-path="url(#b)" cx="106.67" cy="108.55" fill="url(#g)" r="67.26"/><circle clip-path="url(#b)" cx="10.09" cy="486.65" fill="url(#h)" r="56.92"/><path d="m135.42 0h144.46l-180.04 229.75c-43.43 55.42-37.77 139.03 12.65 186.74l88.17 83.51h-173.89v-245.54l89.7-114.48c31.37-40 37.11-94.7 18.95-139.98z" fill="url(#i)" opacity=".78"/><path d="m108.65 0h144.45l-180.04 229.75c-43.43 55.42-37.76 139.03 12.65 186.74l88.18 83.51h-173.89v-245.54l89.7-114.48c31.36-40 37.11-94.7 18.95-139.98z" fill="#0097d3"/><path d="m108.65 0h144.45l-180.04 229.75c-43.43 55.42-37.76 139.03 12.65 186.74l88.18 83.51h-173.89v-245.54l89.7-114.48c31.36-40 37.11-94.7 18.95-139.98z" fill="url(#j)" opacity=".5"/><path d="m91.49 0h17.16c18.17 45.28 12.42 99.98-18.94 139.98l-89.71 114.48v-68.91l67.6-86.26c22.25-28.42 29.98-65.16 23.89-99.29z" fill="#8e418d"/><path d="m0 0h91.49c6.09 34.13-1.64 70.87-23.88 99.28l-67.61 86.26z" fill="#cf2280"/><path d="m678.66 0h71.34v303.46l-73.21-201.69c-12.38-34.15-10.77-70.65 1.87-101.77z" fill="#0097d3"/><path d="m678.66 0h71.34v303.46l-73.21-201.69c-12.38-34.15-10.77-70.65 1.87-101.77z" fill="url(#k)" opacity=".5"/><path d="m609.05 0h69.61c-12.65 31.12-14.26 67.62-1.87 101.78l73.21 201.68v196.54h-230.71l89.85-39.43 20.9-9.16c68.06-29.86 101.23-114.7 74.07-189.52z" fill="#f6c44f"/><path d="m569.15 0h39.89l95.05 261.88c27.16 74.82-6.01 159.66-74.07 189.52l-20.9 9.16c60.53-27.05 89.88-102.79 65.65-169.58z" fill="#f0862b"/></svg>