<svg enable-background="new 0 0 16 16" viewBox="0 0 16 16" xmlns="http://www.w3.org/2000/svg"><g fill="#4e4e4d"><path d="m8 0c-4.4 0-8 3.6-8 8s3.6 8 8 8c4.4 0 8-3.6 8-8s-3.6-8-8-8zm5.1 10v.1c0 .2 0 .4-.1.6-.1.6-.4 1.2-.9 1.6-.5.5-1.2.7-1.9.7-.2 0-.5 0-.7 0-1 0-2 0-3.1 0-.1 0-.1 0-.2 0-.4 0-.8 0-1.2-.1-.8-.2-1.5-.7-1.8-1.5-.2-.4-.3-.9-.3-1.5 0-1.1 0-2.2 0-3.3 0-.5 0-1 .1-1.5.2-.9.7-1.5 1.5-1.9.5-.2 1-.3 1.5-.3h4.2c.4 0 .8.1 1.2.3.9.4 1.4 1.2 1.6 2.2 0 .2 0 .4.1.5z"/><path d="m10.7 3.9c-.4 0-.7-.1-1.1-.1-.9 0-1.9 0-2.8 0-.5 0-.9 0-1.4.1-.8.1-1.3.6-1.4 1.4-.1.3-.1.7-.2 1v2.5c0 .6 0 1.1.1 1.7s.3 1 .8 1.3c.3.2.7.3 1.1.3.7 0 1.5 0 2.2.1h.8c.6 0 1.2 0 1.7-.1.8-.1 1.3-.6 1.5-1.3.1-.3.1-.6.1-1 0-1 0-2.1 0-3.1 0-.4 0-.8-.1-1.2 0-.8-.5-1.4-1.3-1.6zm-2.7 6.7c-1.5 0-2.6-1.2-2.6-2.6 0-1.5 1.2-2.6 2.6-2.6 1.5 0 2.6 1.2 2.6 2.6 0 1.5-1.2 2.6-2.6 2.6zm2.7-4.7c-.3 0-.6-.3-.6-.6s.3-.6.6-.6.6.3.6.6-.2.6-.6.6z"/><path d="m8 6.3c-.9 0-1.7.8-1.7 1.7s.8 1.7 1.7 1.7 1.7-.8 1.7-1.7-.8-1.7-1.7-1.7z"/></g></svg>