<svg enable-background="new 0 0 144.6 60" viewBox="0 0 144.6 60" xmlns="http://www.w3.org/2000/svg"><g fill="#fff"><path d="m69.5 9.8c2.3 0 3.4 1.3 3.4 1.3l-1 1.7s-1-.9-2.3-.9c-1.7 0-2.6 1.3-2.6 2.6 0 1.4.9 2.7 2.6 2.7 1.4 0 2.4-1.1 2.4-1.1l1.1 1.6s-1.3 1.5-3.7 1.5c-2.9 0-4.8-2-4.8-4.7.1-2.6 2.1-4.7 4.9-4.7z"/><path d="m79.1 17.2h-2.8l-.5 1.9h-2.3l3.1-9.1h2.3l3.1 9.1h-2.3zm-1.5-5.1s-.2 1-.4 1.6l-.5 1.8h1.8l-.5-1.8c-.1-.6-.3-1.6-.4-1.6z"/><path d="m83.5 16.3s1 .9 2.2.9c.5 0 1-.2 1-.7 0-1.1-4.1-1-4.1-3.9 0-1.7 1.4-2.8 3.2-2.8 2 0 2.9 1 2.9 1l-.9 1.8s-.9-.8-2-.8c-.5 0-1 .2-1 .7 0 1.1 4.1.9 4.1 3.8 0 1.5-1.2 2.8-3.2 2.8-2.1 0-3.3-1.3-3.3-1.3z"/><path d="m94.9 17.2h-2.8l-.5 1.9h-2.3l3.1-9.1h2.3l3.1 9.1h-2.3zm-1.4-5.1s-.2 1-.4 1.6l-.5 1.8h1.8l-.5-1.8c-.2-.6-.4-1.6-.4-1.6z"/><path d="m101.7 10h3.2c2.9 0 4.7 1.7 4.7 4.5 0 2.9-1.8 4.6-4.7 4.6h-3.2zm3.2 7.2c1.5 0 2.5-.9 2.5-2.7 0-1.7-1-2.6-2.5-2.6h-.9v5.3z"/><path d="m111.3 10h5.7v1.9h-3.5v1.7h2.8v1.9h-2.8v1.7h3.7v1.9h-5.9z"/><path d="m121.7 10h2.2v7.2h3.7v1.9h-6v-9.1z"/><path d="m133.8 17.2h-2.8l-.5 1.9h-2.3l3.1-9.1h2.4l3.1 9.1h-2.3zm-1.4-5.1s-.2 1-.4 1.6l-.5 1.8h1.8l-.5-1.8c-.2-.6-.4-1.6-.4-1.6z"/><path d="m69.5 25.6c2.3 0 3.4 1.3 3.4 1.3l-1 1.7s-1-.9-2.3-.9c-1.7 0-2.6 1.3-2.6 2.6 0 1.4.9 2.7 2.6 2.7 1.4 0 2.4-1.1 2.4-1.1l1.1 1.6s-1.3 1.5-3.7 1.5c-2.9 0-4.8-2-4.8-4.7.1-2.6 2.1-4.7 4.9-4.7z"/><path d="m74.4 25.8h2.2v5.8c0 1 .6 1.5 1.6 1.5s1.6-.5 1.6-1.5v-5.8h2.2v5.8c0 2.1-1.5 3.5-3.8 3.5s-3.8-1.5-3.8-3.5z"/><path d="m84 25.8h2.2v7.2h3.8v1.9h-6z"/><path d="m92.3 27.7h-2.8v-1.9h7.8v1.9h-2.8v7.2h-2.2z"/><path d="m98.3 25.8h2.2v5.8c0 1 .6 1.5 1.6 1.5s1.6-.5 1.6-1.5v-5.8h2.2v5.8c0 2.1-1.5 3.5-3.8 3.5s-3.8-1.5-3.8-3.5z"/><path d="m108 25.8h3.2c.9 0 1.4.1 1.8.2 1 .4 1.7 1.3 1.7 2.7 0 1-.5 2-1.4 2.5s.1.2.3.5l1.8 3.2h-2.5l-1.6-3.1h-1v3.1h-2.3zm3.2 4.1c.7 0 1.2-.4 1.2-1.1s-.3-1.1-1.4-1.1h-.8v2.2z"/><path d="m121.3 33h-2.8l-.5 1.9h-2.3l3.1-9.1h2.3l3.1 9.1h-2.3zm-1.4-5.2s-.2 1-.4 1.6l-.5 1.8h1.8l-.5-1.8c-.2-.6-.4-1.6-.4-1.6z"/><path d="m69.5 41.4c2.8 0 4.8 2 4.8 4.7s-2 4.8-4.8 4.8-4.8-2.1-4.8-4.8 2-4.7 4.8-4.7zm0 7.4c1.4 0 2.5-1.2 2.5-2.7s-1.1-2.6-2.5-2.6-2.5 1.1-2.5 2.6 1.1 2.7 2.5 2.7z"/><path d="m80 48.7h-2.8l-.5 1.9h-2.3l3.1-9.1h2.3l3.1 9.1h-2.3zm-1.4-5.1s-.2 1-.4 1.6l-.5 1.8h1.8l-.5-1.8c-.2-.6-.4-1.6-.4-1.6z"/><path d="m86.1 46.1-2.8-4.6h2.5l1 1.9c.3.6.6 1.2.6 1.2s.2-.6.6-1.2l1-1.9h2.5l-2.8 4.6 2.8 4.5h-2.5l-1-1.9c-.3-.6-.6-1.1-.6-1.1s-.2.6-.6 1.1l-1 1.9h-2.5z"/><path d="m97.6 48.7h-2.8l-.5 1.9h-2.3l3.1-9.1h2.3l3.1 9.1h-2.3zm-1.4-5.1s-.2 1-.4 1.6l-.5 1.8h1.8l-.5-1.8c-.2-.6-.4-1.6-.4-1.6z"/><path d="m105.1 41.4c2.8 0 4.8 2 4.8 4.7 0 1-.4 1.9-.9 2.7l1 .8-1.3 1.4-.9-.9c-.7.5-1.6.8-2.6.8-2.8 0-4.8-2.1-4.8-4.8-.1-2.7 1.9-4.7 4.7-4.7zm0 7.4c.3 0 .7-.1 1-.2l-.9-.8 1.3-1.4.9.9c.2-.4.2-.8.2-1.2 0-1.5-1.1-2.6-2.5-2.6s-2.5 1.1-2.5 2.6 1.1 2.7 2.5 2.7z"/><path d="m111.1 41.5h2.2v5.8c0 1 .6 1.5 1.6 1.5s1.6-.5 1.6-1.5v-5.8h2.2v5.8c0 2.1-1.5 3.5-3.8 3.5s-3.8-1.5-3.8-3.5z"/><path d="m120.3 41.5h5.7v1.9h-3.5v1.7h2.8v1.9h-2.8v1.7h3.7v1.9h-5.9z"/><path d="m127.5 41.5h2.3l2.5 4.3c.4.6.8 1.6.8 1.6s-.1-1-.1-1.6v-4.3h2.2v9.1h-2.2l-2.5-4.3c-.4-.6-.8-1.6-.8-1.6s.1 1 .1 1.6v4.3h-2.2v-9.1zm2.9-2.5c.9 0 1.1.8 1.6.8.3 0 .5-.2.5-.7h1.4c0 1.3-.5 2-1.6 2-.9 0-1.1-.8-1.6-.8-.3 0-.5.2-.5.7h-1.4c0-1.3.5-2 1.6-2z"/><path d="m141.7 48.7h-2.8l-.5 1.9h-2.4l3.1-9.1h2.4l3.1 9.1h-2.3zm-1.4-5.1s-.2 1-.4 1.6l-.5 1.8h1.8l-.5-1.8c-.2-.6-.4-1.6-.4-1.6z"/><g clip-rule="evenodd" fill-rule="evenodd"><path d="m12.4 38.6.8 1.3-6 4.2-1.2-1.9z"/><path d="m12.2 38.1-.6-1.4-7 2.4.9 2.1z"/><path d="m21.6 47.7 1.4.5-2 7.1-2.1-.8z"/><path d="m21.1 47.5-1.3-.7-4 6.1 2 1.1z"/><path d="m22.1 12 1.4-.5-2-7-2.2.7z"/><path d="m21.6 12.3-1.3.7-4-6.2 2-1.1z"/><path d="m38.6 47.6 1.4-.7 3.9 6.2-2 1.1z"/><path d="m38.1 47.8-1.4.5 2 7.1 2.1-.7z"/><path d="m47.6 21.3-.7-1.3 6.2-3.9 1.1 2z"/><path d="m47.8 21.8.5 1.5 7.1-2-.7-2.1z"/><path d="m12.5 21.3.8-1.3-6-4.3-1.2 1.9z"/><path d="m12.2 21.8-.5 1.3-7-2.3.8-2.1z"/><path d="m38.7 12.5 1.3.7 4.2-6-1.9-1.2z"/><path d="m38.2 12.2-1.4-.6 2.4-6.9 2.1.8z"/><path d="m47.4 38.6-.7 1.3 6 4.2 1.2-1.9z"/><path d="m47.7 38.1.6-1.4 6.9 2.4-.8 2.1z"/></g><path d="m38.7 30c0 4.8-3.9 8.8-8.8 8.8-4.8 0-8.8-3.9-8.8-8.8 0-4.8 3.9-8.8 8.8-8.8 4.9.1 8.8 4 8.8 8.8zm-16.4 0c0 4.2 3.4 7.7 7.7 7.7 4.2 0 7.7-3.4 7.7-7.7 0-4.2-3.4-7.7-7.7-7.7-4.3.1-7.7 3.5-7.7 7.7z"/><path clip-rule="evenodd" d="m0 29.2v1.5l2 .7v-2.8z" fill-rule="evenodd"/><path clip-rule="evenodd" d="m9.6 26.1-4.7 1.5v4.7l4.7 1.5c.1 1.2 1.2 2.2 2.5 2.2 1.4 0 2.5-1.1 2.5-2.5 0-1-.7-1.9-1.6-2.3l-4-1.3 4-1.3c.9-.4 1.6-1.3 1.6-2.3 0-1.4-1.1-2.5-2.5-2.5-1.3.1-2.4 1.1-2.5 2.3z" fill-rule="evenodd"/><path clip-rule="evenodd" d="m3 28.3v3.4l.9.3v-4z" fill-rule="evenodd"/><path clip-rule="evenodd" d="m60 30.8v-1.5l-2-.6v2.7z" fill-rule="evenodd"/><path clip-rule="evenodd" d="m50.4 33.9 4.7-1.5v-4.7l-4.7-1.5c-.1-1.2-1.2-2.2-2.5-2.2-1.4 0-2.5 1.1-2.5 2.5 0 1 .7 1.9 1.6 2.3l4 1.3-4 1.3c-.9.4-1.6 1.3-1.6 2.3 0 1.4 1.1 2.5 2.5 2.5 1.3-.1 2.3-1.1 2.5-2.3z" fill-rule="evenodd"/><path clip-rule="evenodd" d="m57 31.7v-3.4l-1-.3v4.1z" fill-rule="evenodd"/><path clip-rule="evenodd" d="m29.2 60h1.5l.7-2h-2.8z" fill-rule="evenodd"/><path clip-rule="evenodd" d="m26.1 50.4 1.5 4.7h4.7l1.5-4.7c1.2-.1 2.2-1.2 2.2-2.5 0-1.4-1.1-2.5-2.5-2.5-1 0-1.9.7-2.3 1.6l-1.3 4-1.3-4c-.4-.9-1.3-1.6-2.3-1.6-1.4 0-2.5 1.1-2.5 2.5.1 1.3 1.1 2.4 2.3 2.5z" fill-rule="evenodd"/><path clip-rule="evenodd" d="m28.3 57h3.4l.3-.9h-4z" fill-rule="evenodd"/><path clip-rule="evenodd" d="m30.7 0h-1.5l-.6 2h2.7z" fill-rule="evenodd"/><path clip-rule="evenodd" d="m33.8 9.6-1.5-4.7h-4.7l-1.5 4.7c-1.2.1-2.2 1.2-2.2 2.5 0 1.4 1.1 2.5 2.5 2.5 1 0 1.9-.7 2.3-1.6l1.3-4 1.3 4c.4.9 1.3 1.6 2.3 1.6 1.4 0 2.5-1.1 2.5-2.5-.1-1.3-1-2.4-2.3-2.5z" fill-rule="evenodd"/><path clip-rule="evenodd" d="m31.6 3h-3.4l-.3.9h4.1z" fill-rule="evenodd"/><path clip-rule="evenodd" d="m15.9 10.2-2.4 2.4 2.1 2.3.6-.7-.8-1.3.7-.7 1.6 2.3-1.6 1.6-1.6 1.6-2.2-1.7.6-.7 1.3.9.7-.7-2.3-2.1-2.4 2.4 6.5 5.1 4.2-4.2z" fill-rule="evenodd"/><path clip-rule="evenodd" d="m15.9 49.9-2.4-2.4 2.1-2.3.6.7-.8 1.3.7.7 1.6-2.3-1.6-1.6-1.6-1.6-2.2 1.7.6.7 1.3-.9.7.7-2.3 2.1-2.4-2.4 6.5-5.1 4.2 4.2z" fill-rule="evenodd"/><path clip-rule="evenodd" d="m44.2 10.2 2.4 2.4-2.1 2.3-.7-.7.9-1.3-.7-.7-1.6 2.3 1.5 1.6 1.6 1.6 2.3-1.7-.7-.7-1.2.9-.7-.7 2.2-2.1 2.4 2.4-6.4 5.1-4.3-4.2z" fill-rule="evenodd"/><path clip-rule="evenodd" d="m44.1 49.8 2.4-2.4-2.1-2.2-.7.7.9 1.2-.7.7-1.7-2.3 1.6-1.6 1.6-1.6 2.3 1.7-.7.7-1.2-.9-.7.7 2.2 2.1 2.4-2.4-6.4-5.1-4.3 4.3z" fill-rule="evenodd"/><path d="m30 18.9v-1.1c-.6 0-1.2 0-1.8.1l.2 1.1c-.4.1-.8.1-1.1.2l-.3-1c-.6.1-1.1.3-1.7.6l.4 1c-.4.2-.7.3-1.1.5l-.5-.9c-.5.3-1 .6-1.5 1l.6.9c-.3.2-.6.5-.9.8l-.7-.8c-.4.4-.8.8-1.2 1.3l.8.7c-.2.3-.5.6-.7 1l-.9-.6c-.3.5-.6 1-.8 1.6l1 .4c-.2.4-.3.7-.4 1.1l-1-.3c-.2.6-.3 1.1-.4 1.7l1.1.2c-.1.4-.1.8-.1 1.2l-1.1-.1v1.8l1.1-.1c0 .4.1.8.2 1.2l-1.2-.1c.1.6.3 1.2.5 1.7l1-.4c.1.4.3.7.4 1.1l-1 .5c.2.5.5 1.1.9 1.5l.9-.6c.2.3.4.6.7.9l-.8.7c.4.5.8.9 1.2 1.3l.7-.8c.3.3.6.5.9.7l-.6.9c.5.3 1 .7 1.5.9l.5-1c.3.2.7.3 1.1.5l-.4 1c.1 0 .1.1.2.1.5.2 1 .3 1.5.5l.2-1c.4.1.8.2 1.1.2l-.1 1.1c.5.1 1 .1 1.5.1h.2v-1.1c.4 0 .8 0 1.2-.1l.1 1.1c.6-.1 1.2-.2 1.7-.3l-.3-1c.4-.1.7-.2 1.1-.4l.4 1c.5-.2 1.1-.5 1.6-.8l-.5-.9c.3-.2.7-.4 1-.6l.6.9c.5-.3.9-.7 1.4-1.1l-.7-.9c.3-.3.5-.6.8-.9l.8.7c.4-.5.7-.9 1-1.4l-.9-.6c.2-.3.4-.7.6-1l1 .5c.1-.3.3-.6.4-.9.1-.2.2-.5.2-.7l-1-.3c.1-.4.2-.8.3-1.1l1.1.2c.1-.6.2-1.2.2-1.8h-1.1c0-.2 0-.3 0-.5 0-.1 0-.1 0-.2 0-.2 0-.3 0-.5l1.1-.1c0-.6-.1-1.2-.2-1.8l-1.1.2c-.1-.4-.2-.8-.3-1.1l1-.3c-.2-.6-.4-1.1-.7-1.6l-1 .5c-.2-.3-.4-.7-.6-1l.9-.6c-.3-.5-.7-1-1-1.4l-.8.7c-.3-.3-.5-.6-.8-.8l.7-.8c-.4-.4-.9-.8-1.4-1.1l-.6.7c-.3-.2-.6-.4-1-.6l.5-.9c-.5-.3-1.1-.5-1.6-.7l-.4 1c-.4-.1-.8-.3-1.1-.4l.3-1c-.6-.1-1.2-.3-1.7-.3l-.1.9c-.4 0-.8-.1-1.2-.1zm7.4 3-.7.8c.4.3.7.7 1 1l.8-.7c.3.3.5.6.7 1l-.9.6c.3.4.5.8.7 1.2l1-.5c.2.4.3.7.4 1.1l-1 .3c.2.4.3.9.4 1.4l1.1-.2c.1.4.1.8.2 1.2l-1.1.1v.6.8l1.1.1c0 .4-.1.8-.1 1.2l-1.1-.2c-.1.5-.2.9-.3 1.4l1 .3c0 .1-.1.3-.2.4-.1.2-.2.4-.3.7l-1-.4c-.2.4-.4.9-.7 1.3l.9.6c-.2.3-.4.7-.7 1l-.8-.7c-.3.4-.6.7-1 1l.7.8c-.3.3-.6.5-.9.8l-.6-.9c-.4.3-.8.5-1.2.8l.5.9c-.3.2-.7.4-1.1.5l-.4-1c-.4.2-.9.3-1.4.5l.3 1c-.4.1-.8.2-1.2.2l-.1-1.1c-.4.2-.9.2-1.3.2h-.1v1.1c-.4 0-.8 0-1.2-.1l.1-1.1c-.5-.1-.9-.1-1.4-.3l-.3 1c-.4-.1-.8-.2-1.1-.4l.4-1c-.4-.2-.9-.4-1.3-.6l-.5.9c-.3-.2-.7-.4-1-.6l.6-.9c-.4-.3-.8-.6-1.1-.9l-.7.8c-.3-.3-.6-.6-.8-.9l.8-.7c-.3-.4-.6-.7-.8-1.2l-.9.6c-.2-.3-.4-.7-.6-1l1-.5c-.2-.4-.4-.9-.5-1.3l-1 .3c-.1-.4-.2-.8-.3-1.1l1.1-.2c-.1-.5-.2-.9-.2-1.4l-1.3.2c0-.4 0-.8 0-1.2h1.1c0-.5.1-1 .2-1.4l-1.2-.1c.1-.4.2-.8.3-1.2l1 .3c.1-.5.3-.9.5-1.3l-1-.5c.2-.4.4-.7.6-1l.9.6c.2-.4.5-.8.8-1.2l-.7-.7c.3-.3.5-.6.8-.9l.7.8c.3-.3.7-.6 1.1-.9l-.6-.9c.3-.2.7-.4 1-.6l.5.9c.4-.2.8-.4 1.3-.6l-.4-1c.4-.1.7-.3 1.1-.4l.3 1c.5-.1.9-.2 1.4-.3l-.1-1.1h1.2v1.1h.1c.4 0 .9 0 1.3.1l.1-1.1c.4.1.8.1 1.2.2l-.3 1c.5.1.9.3 1.4.4l.4-1c.4.1.7.3 1.1.5l-.5 1c.4.2.8.5 1.2.8l.6-.9c.4.3.7.5 1 .8z"/><path clip-rule="evenodd" d="m32.6 29.2c-.1-.1-.1-.3-.2-.4-.1-.2-.2-.4-.4-.6-.2-.3-.5-.5-.8-.6-.2-.1-.4-.2-.6-.2-.2-.1-.4-.1-.6-.1s-.7.1-.9.1c-.2.1-.5.2-.7.3-.4.2-.7.6-.9 1-.1.1-.1.2-.2.4-.1.3-.1.6-.1.9 0 .4.1.7.2 1 .2.5.5.9.9 1.2.3.2.6.4 1 .5.2.1.5.1.7.1.4 0 .8-.1 1.2-.3.6-.3 1-.7 1.3-1.4.1-.3.2-.7.2-.9 0-.3 0-.7-.1-1" fill-rule="evenodd"/><path clip-rule="evenodd" d="m23.4 30c0-.8.6-1.4 1.4-1.4s1.4.6 1.4 1.4-.6 1.4-1.4 1.4c-.8.1-1.4-.6-1.4-1.4" fill-rule="evenodd"/><path clip-rule="evenodd" d="m25.3 25.4c.6-.6 1.5-.6 2 0 .6.6.6 1.5 0 2-.6.6-1.5.6-2 0s-.5-1.5 0-2" fill-rule="evenodd"/><path clip-rule="evenodd" d="m33.9 30c0-.8.6-1.4 1.4-1.4s1.4.6 1.4 1.4-.6 1.4-1.4 1.4c-.8.1-1.4-.6-1.4-1.4" fill-rule="evenodd"/><path clip-rule="evenodd" d="m28.5 35.1c0-.8.6-1.4 1.4-1.4s1.4.6 1.4 1.4-.6 1.4-1.4 1.4c-.7.1-1.4-.6-1.4-1.4" fill-rule="evenodd"/><path clip-rule="evenodd" d="m32.6 25.4c.6-.6 1.5-.6 2 0 .6.6.6 1.5 0 2-.6.6-1.5.6-2 0-.6-.6-.6-1.5 0-2" fill-rule="evenodd"/><path clip-rule="evenodd" d="m25.4 32.6c.6-.6 1.5-.6 2 0 .6.6.6 1.5 0 2-.6.6-1.5.6-2 0-.6-.5-.6-1.4 0-2" fill-rule="evenodd"/><path clip-rule="evenodd" d="m28.6 24.9c0-.8.6-1.4 1.4-1.4s1.4.6 1.4 1.4-.6 1.4-1.4 1.4-1.4-.7-1.4-1.4" fill-rule="evenodd"/><path clip-rule="evenodd" d="m32.6 32.6c.6-.6 1.5-.6 2 0 .6.6.6 1.5 0 2-.6.6-1.5.6-2 0-.6-.5-.6-1.4 0-2" fill-rule="evenodd"/><path d="m38.7 30c0 4.8-3.9 8.8-8.8 8.8-4.8 0-8.8-3.9-8.8-8.8 0-4.8 3.9-8.8 8.8-8.8 4.9.1 8.8 4 8.8 8.8zm-16.4 0c0 4.2 3.4 7.7 7.7 7.7 4.2 0 7.7-3.4 7.7-7.7 0-4.2-3.4-7.7-7.7-7.7-4.3.1-7.7 3.5-7.7 7.7z"/><path d="m17.6 24.8c1.4-3.2 4-5.8 7.3-7.2l-.4-1c-3.5 1.5-6.4 4.3-7.9 7.8z"/><path d="m17.6 35.1c1.4 3.3 4 5.9 7.2 7.3l-.4 1c-3.5-1.5-6.3-4.3-7.8-7.8z"/><path d="m35 42.3c3.3-1.3 5.9-3.9 7.3-7.2l1 .4c-1.5 3.5-4.3 6.3-7.9 7.8z"/><path d="m42.4 25c-1.3-3.3-3.9-5.9-7.2-7.3l.4-1c3.5 1.5 6.3 4.4 7.8 7.9z"/><path clip-rule="evenodd" d="m10.8 9.3c.8 0 1.4.6 1.4 1.4s-.6 1.4-1.4 1.4-1.4-.6-1.4-1.4c0-.7.6-1.4 1.4-1.4z" fill-rule="evenodd"/><path clip-rule="evenodd" d="m49.1 9.5c.8 0 1.4.6 1.4 1.4s-.6 1.4-1.4 1.4-1.4-.6-1.4-1.4.6-1.4 1.4-1.4z" fill-rule="evenodd"/><path clip-rule="evenodd" d="m49 47.7c.8 0 1.4.6 1.4 1.4s-.6 1.4-1.4 1.4-1.4-.6-1.4-1.4.6-1.4 1.4-1.4z" fill-rule="evenodd"/><path clip-rule="evenodd" d="m10.9 47.7c.8 0 1.4.6 1.4 1.4s-.6 1.4-1.4 1.4-1.4-.6-1.4-1.4.6-1.4 1.4-1.4z" fill-rule="evenodd"/></g></svg>