<svg enable-background="new 0 0 15 10" viewBox="0 0 15 10" xmlns="http://www.w3.org/2000/svg"><path d="m15 8.8c0 .1 0 .2-.1.3-.2.6-.7 1-1.4 1-1 0-2 0-3 0-3 0-6 0-9 0-.7 0-1.2-.4-1.4-1-.1-.2-.1-.4-.1-.5 0-2.4 0-4.8 0-7.1 0-.9.6-1.5 1.4-1.5h.3 11.8c.7 0 1.2.3 1.4.9 0 .1.1.2.1.3zm-.9-5.8c-.1 0-.1 0-.1.1-1.9 1-3.7 1.9-5.6 2.9-.6.3-1.2.3-1.8 0-1.9-1-3.7-1.9-5.6-2.9 0 0-.1 0-.1-.1v.2 5.3c0 .4.2.6.6.6h12c.4 0 .6-.2.6-.6 0-1.8 0-3.5 0-5.3 0 0 0-.1 0-.2zm-6.6-2.1c-2 0-4 0-6 0-.1 0-.1 0-.2 0-.2.1-.4.2-.4.5v.4c0 .1 0 .2.2.3 2 1 3.9 2 5.9 3.1.4.2.7.2 1 0 1.9-1 3.7-2 5.6-2.9.4-.3.5-.4.5-.8s-.2-.6-.6-.6c-2 0-4 0-6 0z" fill="#b7247e"/></svg>