<svg enable-background="new 0 0 16 16" viewBox="0 0 16 16" xmlns="http://www.w3.org/2000/svg"><path d="m6.1 8v-2.4c0-.4.4-.7.8-.5l1.8 1.2 1.8 1.2c.3.2.3.8 0 1l-1.9 1.2-1.8 1.2c-.3.2-.8-.1-.8-.5z" fill="#252326"/><path d="m8 15.9c-4.3 0-7.9-3.5-7.9-7.9 0-4.3 3.5-7.9 7.9-7.9 4.3 0 7.9 3.5 7.9 7.9 0 1.6-.5 3.2-1.4 4.5-.2.2-.5.3-.7.1s-.3-.5-.1-.7c.8-1.2 1.2-2.5 1.2-3.9 0-3.8-3.1-6.9-6.9-6.9s-6.9 3.1-6.9 6.9 3.1 6.9 6.9 6.9c1.2 0 2.3-.3 3.3-.8.2-.1.5 0 .7.2.1.2 0 .5-.2.7-1.2.5-2.5.9-3.8.9z" fill="#252326"/><circle cx="12.9" cy="13.4" fill="#b7247e" r=".6"/></svg>