<svg enable-background="new 0 0 16 16" viewBox="0 0 16 16" xmlns="http://www.w3.org/2000/svg"><path d="m8 16c-4.4 0-8-3.6-8-8s3.6-8 8-8 8 3.6 8 8c0 1-.2 1.9-.5 2.8-.1.3-.4.4-.6.3-.3-.1-.4-.4-.3-.6.2-.8.4-1.7.4-2.5 0-3.9-3.1-7-7-7s-7 3.1-7 7 3.1 7 7 7c.4 0 .8 0 1.2-.1.3 0 .5.1.6.4 0 .3-.1.5-.4.6-.5.1-1 .1-1.4.1z" fill="#b7247e"/><path d="m11 15.3c-.3 0-.6-.3-.6-.6v-3.2c0-.3.3-.6.6-.6s.6.3.6.6v3.2c0 .3-.3.6-.6.6z" fill="#1a171b"/><path d="m13.2 15.3c-.3 0-.6-.3-.6-.6v-3.2c0-.3.3-.6.6-.6s.6.3.6.6v3.2c0 .3-.3.6-.6.6z" fill="#1a171b"/><path d="m6.1 8v-2.4c0-.4.4-.7.8-.5l1.8 1.2 1.8 1.2c.3.2.3.8 0 1l-1.9 1.2-1.8 1.2c-.3.2-.8-.1-.8-.5v-2.4z" fill="#b7247e"/></svg>